<?xml version="1.0" encoding="UTF-8" standalone="no"?>
<svg width="628px" height="287px" viewBox="0 0 628 287" version="1.1" xmlns="http://www.w3.org/2000/svg" xmlns:xlink="http://www.w3.org/1999/xlink" xmlns:sketch="http://www.bohemiancoding.com/sketch/ns">
    <!-- Generator: Sketch 3.5.2 (25235) - http://www.bohemiancoding.com/sketch -->
    <title>There’s got to be a </title>
    <desc>Created with Sketch.</desc>
    <defs></defs>
    <g id="Page-1" stroke="none" stroke-width="1" fill="none" fill-rule="evenodd" sketch:type="MSPage">
        <g id="Artboard-1" sketch:type="MSArtboardGroup" transform="translate(-14.000000, -39.000000)" fill="#131313">
            <path d="M63.2306168,47.1333409 C63.2306168,42.1521481 56.495483,41.8013599 52.9174431,41.8013599 C50.9530291,41.8013599 48.9184574,41.9416752 46.8838857,41.9416752 C38.8859143,41.9416752 27.7308489,41.2400987 20.223981,44.1165622 C17.7684634,45.0987692 14.892,48.0453902 14.892,50.7815384 C14.892,53.8684747 17.4176752,54.6402088 20.013508,54.6402088 C22.4690256,54.6402088 24.9245431,54.1491053 27.309903,54.00879 C29.1340018,53.9386323 30.9581005,53.8684747 32.8523569,53.7281594 C32.7120416,55.2716276 32.7120416,56.8150958 32.7120416,58.2884063 C32.7120416,61.305185 32.8523569,64.251806 32.8523569,67.1984271 C32.8523569,73.5827727 32.431411,79.9671183 32.431411,86.3514639 C32.431411,90.280292 33.2031451,96.6646376 38.3948108,96.6646376 C42.5341118,96.6646376 45.6210481,91.5431296 45.6210481,87.7546168 C45.6210481,78.9849113 44.9896293,70.0748905 44.9896293,61.2350273 C44.9896293,58.7093521 45.2702599,56.2538346 45.3404176,53.7281594 C48.6378268,53.7281594 51.9352361,53.7983171 55.2326454,53.7983171 C57.8986359,53.7983171 63.2306168,49.9396466 63.2306168,47.1333409 L63.2306168,47.1333409 Z M105.060163,89.3682426 C105.060163,84.1064193 104.56906,78.844596 104.56906,73.5827727 C104.56906,65.9355895 104.990006,58.148091 96.5009307,54.9208394 C94.4663591,54.1491053 92.2914721,53.7983171 90.1165851,53.7983171 C85.8369688,53.7983171 81.6976678,55.3417852 78.1897856,57.7973028 C78.4002586,53.4475288 78.5405738,49.0275973 78.5405738,44.6778233 C78.5405738,42.4327787 78.119628,40.1877341 75.3834799,40.1877341 C70.4724448,40.1877341 66.9645626,46.1511338 66.9645626,50.5710654 C66.9645626,54.6402088 67.2451931,58.7093521 67.2451931,62.7784955 C67.2451931,69.3733141 67.2451931,76.0382903 66.8242473,82.6331088 C66.683932,84.6676805 66.4033014,86.7724098 66.4033014,88.8069815 C66.4033014,91.6132873 66.8944049,96.5243223 70.6829177,96.5243223 C75.5939528,96.5243223 78.3301009,91.472972 78.3301009,87.0530404 C78.3301009,83.6854735 77.5583668,80.2477489 77.5583668,76.7398667 C77.5583668,74.2141915 77.6285245,71.6183587 77.6986821,69.0225258 C80.0138844,67.1282694 83.0306631,65.444486 85.4861806,65.444486 C92.9930485,65.444486 93.7647826,67.3387424 93.7647826,74.3545068 C93.7647826,79.9671183 93.3438368,85.5095722 93.3438368,91.1221837 C93.3438368,94.630066 94.2558861,97.2258988 98.3250295,97.2258988 C101.903069,97.2258988 105.060163,92.7358096 105.060163,89.3682426 L105.060163,89.3682426 Z M141.768202,69.3031564 C135.594329,69.6539446 129.490614,69.7942599 123.386899,69.7942599 C125.491628,65.3041707 128.999511,63.5502296 132.998496,63.5502296 C136.15559,63.5502296 140.856152,64.6025943 141.768202,69.3031564 L141.768202,69.3031564 Z M151.099168,71.758674 C151.099168,63.9010178 147.731602,55.8328887 139.172369,54.2192629 C136.997482,53.7983171 134.752437,53.7983171 132.507393,53.7983171 C127.105254,53.7983171 119.668544,57.5868298 116.581608,62.0067614 C113.284198,66.5670083 110.54805,72.8811963 110.54805,78.4938078 C110.54805,89.0876121 121.492643,97.1557411 131.455028,97.1557411 C137.909531,97.1557411 148.08239,95.5421153 150.46775,88.5263509 C150.608065,88.105405 150.678223,87.6143015 150.678223,87.123198 C150.678223,85.6498875 149.976646,83.19437 148.152547,83.19437 C144.223719,83.19437 141.277098,85.8603604 137.34827,86.2111487 C136.085433,86.3514639 134.822595,86.4216216 133.559757,86.4216216 C131.805816,86.4216216 128.929353,86.2813063 127.385885,85.5797299 C124.930367,84.3870499 122.264377,82.00169 121.5628,79.2655419 C127.666515,79.3356995 133.700073,79.4058572 139.803788,79.4058572 C144.784981,79.4058572 151.099168,78.0027043 151.099168,71.758674 L151.099168,71.758674 Z M185.912951,61.5858156 C185.912951,57.165884 183.106645,54.4998935 178.686713,54.4998935 C173.986151,54.4998935 170.688742,56.0433617 167.812278,58.3585639 C167.742121,56.183677 166.759914,54.4297359 164.234239,54.4297359 C157.288632,54.4297359 157.148316,62.5680226 157.148316,67.619373 C157.148316,72.8811963 157.078159,78.1430196 157.078159,83.3346852 C157.078159,86.0006757 156.867686,88.6666662 156.867686,91.4028143 C156.867686,94.3494354 158.481312,96.1735341 161.49809,96.1735341 C166.830071,96.1735341 167.531648,90.7012379 167.531648,86.6320945 L167.531648,69.3031564 C169.987165,67.4089 172.863629,65.7952742 175.669935,65.7952742 C177.985137,65.7952742 179.809236,67.4089 181.984123,67.4089 C184.930744,67.4089 185.912951,63.9711755 185.912951,61.5858156 L185.912951,61.5858156 Z M216.868062,69.3031564 C210.69419,69.6539446 204.590475,69.7942599 198.486759,69.7942599 C200.591489,65.3041707 204.099371,63.5502296 208.098357,63.5502296 C211.255451,63.5502296 215.956013,64.6025943 216.868062,69.3031564 L216.868062,69.3031564 Z M226.199029,71.758674 C226.199029,63.9010178 222.831462,55.8328887 214.272229,54.2192629 C212.097342,53.7983171 209.852298,53.7983171 207.607253,53.7983171 C202.205115,53.7983171 194.768404,57.5868298 191.681468,62.0067614 C188.384059,66.5670083 185.647911,72.8811963 185.647911,78.4938078 C185.647911,89.0876121 196.592503,97.1557411 206.554889,97.1557411 C213.009392,97.1557411 223.18225,95.5421153 225.56761,88.5263509 C225.707925,88.105405 225.778083,87.6143015 225.778083,87.123198 C225.778083,85.6498875 225.076507,83.19437 223.252408,83.19437 C219.32358,83.19437 216.376959,85.8603604 212.448131,86.2111487 C211.185293,86.3514639 209.922455,86.4216216 208.659618,86.4216216 C206.905677,86.4216216 204.029213,86.2813063 202.485745,85.5797299 C200.030228,84.3870499 197.364237,82.00169 196.662661,79.2655419 C202.766376,79.3356995 208.799933,79.4058572 214.903648,79.4058572 C219.884841,79.4058572 226.199029,78.0027043 226.199029,71.758674 L226.199029,71.758674 Z M248.594908,44.8181386 C249.506957,42.3626211 248.945696,39.416 245.578129,39.416 C245.157183,39.416 244.66608,39.416 244.245134,39.5563153 C236.948739,40.9594682 234.633537,45.9406609 232.73928,50.7113807 C231.406285,54.1491053 228.529822,62.7784955 234.423064,62.7784955 C242.140405,62.7784955 244.736238,52.1846912 246.911125,48.1155479 C247.472386,46.9930256 248.173962,45.8705033 248.594908,44.8181386 L248.594908,44.8181386 Z M284.461055,82.4927935 C284.461055,66.3565354 260.677613,72.9513539 260.677613,67.2685847 C260.677613,64.9533825 264.04518,64.1816484 265.658806,64.1816484 C267.974008,64.1816484 271.271418,64.1114907 273.516462,64.6727519 C274.919615,65.0235401 277.725921,66.6371659 278.778286,66.6371659 C281.303961,66.6371659 282.145852,64.1114907 282.145852,62.1470767 C282.145852,54.990997 274.919615,54.00879 269.307004,54.00879 C265.869279,54.00879 260.46714,55.4119429 257.380204,56.955411 C253.240903,58.9899827 249.662863,65.1638554 249.662863,69.7942599 C249.662863,77.5817584 257.239889,78.9849113 263.062973,80.5985371 C264.606441,81.0896406 274.007566,82.1420053 274.007566,83.4750005 C274.007566,86.7724098 266.781328,87.2635133 264.466126,87.2635133 C257.871308,87.2635133 257.029416,84.1064193 253.381218,84.1064193 C250.64507,84.1064193 249.312075,85.4394146 249.312075,88.1755627 C249.312075,94.3494354 255.977051,97.0154259 261.65982,97.0855835 C264.466126,97.0855835 267.34259,97.2258988 270.148895,96.6646376 C276.673556,95.3316424 284.461055,89.7891885 284.461055,82.4927935 L284.461055,82.4927935 Z M341.530401,80.8791677 C338.934568,81.9315324 336.689523,82.983897 333.321956,82.983897 C328.130291,82.983897 323.499886,80.8090101 323.499886,74.9859256 C323.499886,67.4089 326.797295,66.3565354 333.602587,66.3565354 C336.408893,66.3565354 338.934568,67.1984271 341.460243,68.1806341 L341.460243,72.1094622 C341.460243,75.0560832 341.460243,77.9325466 341.530401,80.8791677 L341.530401,80.8791677 Z M351.843574,90.6310802 C351.843574,87.1933557 351.422628,83.6854735 351.422628,80.2477489 C351.422628,73.5827727 351.773417,66.9177965 351.773417,60.322978 C351.773417,57.6569875 350.229949,54.00879 347.143012,54.00879 C345.038283,54.00879 343.705288,54.990997 342.863396,56.3941499 C339.916775,55.3417852 336.47905,54.9208394 333.953375,54.9208394 C328.481079,54.9208394 322.938625,56.6747805 319.571058,61.1648697 C316.975225,64.7429095 313.116555,72.3199351 313.116555,76.6697091 C313.116555,82.2121629 313.888289,84.3870499 317.11554,88.8069815 C319.711373,92.3850213 324.622408,94.2792777 328.902025,94.2792777 C331.568015,94.2792777 337.3911,93.2269131 341.670716,91.4028143 C341.600558,93.1567554 341.600558,94.8405389 341.24977,96.5243223 C340.758667,99.541101 335.847631,100.944254 333.251799,100.944254 C329.463286,100.944254 327.077926,100.733781 323.710359,98.9798399 C322.377364,98.2782635 320.974211,97.6468447 319.5009,97.6468447 C316.83491,97.6468447 315.922861,99.9620469 315.922861,102.207092 C315.922861,109.713959 324.552251,111.327585 330.515651,111.327585 C339.145041,111.327585 349.59853,104.873082 351.422628,96.0332188 C351.773417,94.2792777 351.843574,92.3850213 351.843574,90.6310802 L351.843574,90.6310802 Z M388.832243,76.1084479 C388.832243,82.00169 388.411298,87.1933557 380.693957,87.1933557 C373.327404,87.1933557 368.697,83.1242123 368.697,75.7576597 C368.697,68.1104765 370.100152,64.8130672 379.080331,64.8130672 C385.815465,64.8130672 388.832243,69.9345752 388.832243,76.1084479 L388.832243,76.1084479 Z M399.706678,72.740881 C399.706678,61.4455003 391.00713,54.6402088 380.132696,54.6402088 C377.045759,54.6402088 373.888665,55.2014699 371.152517,56.6046228 C363.224703,60.8140815 358.033038,70.1450481 358.033038,78.9849113 C358.033038,90.490765 367.083374,97.3662141 378.027966,97.3662141 C391.91918,97.3662141 399.706678,85.7200451 399.706678,72.740881 L399.706678,72.740881 Z M430.311002,88.5263509 C430.311002,86.8425675 429.609425,84.8781534 427.645011,84.8781534 C425.329809,84.8781534 423.435553,86.7022522 421.12035,86.7022522 C416.419788,86.7022522 416.419788,79.7566454 416.419788,76.4592361 C416.419788,74.3545068 416.489946,72.2497775 416.489946,70.0748905 C416.489946,68.3209494 416.630261,66.4968506 416.770576,64.7429095 C417.331838,64.6727519 417.893099,64.6727519 418.524517,64.6727519 C421.751769,64.6727519 429.890056,62.5680226 429.890056,58.4287216 C429.890056,55.3417852 427.645011,54.2894206 424.908863,54.2894206 C423.014607,54.2894206 421.12035,54.7103664 419.226094,54.7103664 L417.401995,54.7103664 L417.401995,53.2370559 C417.401995,51.7637454 417.682626,50.3605925 417.682626,48.887282 C417.682626,46.6422373 416.910892,43.9762469 414.104586,43.9762469 C413.613482,43.9762469 413.052221,44.1165622 412.561118,44.1867198 C409.123393,45.0987692 406.738033,50.0098043 406.738033,53.3773712 L406.738033,55.2014699 C404.282516,56.1135193 401.826998,59.2706133 401.826998,61.5156579 C401.826998,64.1114907 403.510782,64.8832248 405.825984,64.8832248 L406.738033,64.8832248 C406.667876,70.4958364 406.597718,76.1786055 406.597718,81.7912171 C406.597718,88.5965086 409.193551,97.1557411 417.401995,97.1557411 C422.453346,97.1557411 430.311002,94.7002236 430.311002,88.5263509 L430.311002,88.5263509 Z M483.942623,88.5263509 C483.942623,86.8425675 483.241047,84.8781534 481.276633,84.8781534 C478.96143,84.8781534 477.067174,86.7022522 474.751972,86.7022522 C470.051409,86.7022522 470.051409,79.7566454 470.051409,76.4592361 C470.051409,74.3545068 470.121567,72.2497775 470.121567,70.0748905 C470.121567,68.3209494 470.261882,66.4968506 470.402198,64.7429095 C470.963459,64.6727519 471.52472,64.6727519 472.156139,64.6727519 C475.38339,64.6727519 483.521677,62.5680226 483.521677,58.4287216 C483.521677,55.3417852 481.276633,54.2894206 478.540484,54.2894206 C476.646228,54.2894206 474.751972,54.7103664 472.857715,54.7103664 L471.033616,54.7103664 L471.033616,53.2370559 C471.033616,51.7637454 471.314247,50.3605925 471.314247,48.887282 C471.314247,46.6422373 470.542513,43.9762469 467.736207,43.9762469 C467.245104,43.9762469 466.683843,44.1165622 466.192739,44.1867198 C462.755014,45.0987692 460.369655,50.0098043 460.369655,53.3773712 L460.369655,55.2014699 C457.914137,56.1135193 455.458619,59.2706133 455.458619,61.5156579 C455.458619,64.1114907 457.142403,64.8832248 459.457605,64.8832248 L460.369655,64.8832248 C460.299497,70.4958364 460.229339,76.1786055 460.229339,81.7912171 C460.229339,88.5965086 462.825172,97.1557411 471.033616,97.1557411 C476.084967,97.1557411 483.942623,94.7002236 483.942623,88.5263509 L483.942623,88.5263509 Z M515.809784,76.1084479 C515.809784,82.00169 515.388838,87.1933557 507.671497,87.1933557 C500.304945,87.1933557 495.67454,83.1242123 495.67454,75.7576597 C495.67454,68.1104765 497.077693,64.8130672 506.057871,64.8130672 C512.793005,64.8130672 515.809784,69.9345752 515.809784,76.1084479 L515.809784,76.1084479 Z M526.684219,72.740881 C526.684219,61.4455003 517.984671,54.6402088 507.110236,54.6402088 C504.0233,54.6402088 500.866206,55.2014699 498.130058,56.6046228 C490.202244,60.8140815 485.010578,70.1450481 485.010578,78.9849113 C485.010578,90.490765 494.060914,97.3662141 505.005507,97.3662141 C518.89672,97.3662141 526.684219,85.7200451 526.684219,72.740881 L526.684219,72.740881 Z M586.840501,77.4414431 C586.840501,83.6153158 584.595456,86.2813063 578.140953,86.2813063 C574.35244,86.2813063 572.177553,85.0886264 569.371248,83.4750005 C569.441405,81.5807441 569.511563,79.6864877 569.581721,77.7922314 C569.722036,75.2665562 569.722036,72.740881 569.722036,70.1450481 L569.722036,68.6717376 C572.247711,67.2685847 574.983859,66.2863777 577.93048,66.2863777 C585.437348,66.2863777 586.840501,71.0570975 586.840501,77.4414431 L586.840501,77.4414431 Z M598.065724,72.6005657 C598.065724,66.4968506 594.90863,59.7617168 589.436334,56.6747805 C587.47192,55.6224158 583.262461,54.9208394 581.017417,54.9208394 C577.088589,54.9208394 573.089603,56.1135193 569.581721,58.0077757 C569.581721,54.7103664 569.511563,51.4129572 569.511563,48.1155479 C569.511563,45.1689268 569.020459,41.0997835 565.231947,41.0997835 C560.040281,41.0997835 558.005709,47.9050749 558.075867,52.1145336 L558.075867,52.6056371 C558.28634,64.0413331 558.426655,75.4770291 558.426655,86.8425675 C558.426655,90.5609226 557.654921,96.8049529 563.197375,96.8049529 C564.881158,96.8049529 566.214154,95.8929036 567.266518,94.5599083 C570.423612,96.0332188 574.422598,96.8751106 576.387012,96.8751106 C583.753565,96.8751106 588.804915,93.437386 593.084531,87.6844592 C595.890837,83.8257888 598.065724,77.4414431 598.065724,72.6005657 L598.065724,72.6005657 Z M632.669033,69.3031564 C626.495161,69.6539446 620.391446,69.7942599 614.287731,69.7942599 C616.39246,65.3041707 619.900342,63.5502296 623.899328,63.5502296 C627.056422,63.5502296 631.756984,64.6025943 632.669033,69.3031564 L632.669033,69.3031564 Z M642,71.758674 C642,63.9010178 638.632433,55.8328887 630.0732,54.2192629 C627.898314,53.7983171 625.653269,53.7983171 623.408224,53.7983171 C618.006086,53.7983171 610.569375,57.5868298 607.482439,62.0067614 C604.18503,66.5670083 601.448882,72.8811963 601.448882,78.4938078 C601.448882,89.0876121 612.393474,97.1557411 622.35586,97.1557411 C628.810363,97.1557411 638.983221,95.5421153 641.368581,88.5263509 C641.508896,88.105405 641.579054,87.6143015 641.579054,87.123198 C641.579054,85.6498875 640.877478,83.19437 639.053379,83.19437 C635.124551,83.19437 632.17793,85.8603604 628.249102,86.2111487 C626.986264,86.3514639 625.723427,86.4216216 624.460589,86.4216216 C622.706648,86.4216216 619.830184,86.2813063 618.286716,85.5797299 C615.831199,84.3870499 613.165208,82.00169 612.463632,79.2655419 C618.567347,79.3356995 624.600904,79.4058572 630.704619,79.4058572 C635.685812,79.4058572 642,78.0027043 642,71.758674 L642,71.758674 Z M45.059787,154.497922 C44.9194717,156.602652 44.8493141,158.637223 44.7089988,160.741953 C41.9728506,161.654002 39.0963872,162.215263 36.2199238,162.215263 C33.2733028,162.215263 29.6952629,162.074948 29.6952629,158.42675 C29.6952629,154.848711 35.0974015,153.866504 37.6932344,153.866504 C40.3592248,153.866504 42.6042694,154.287449 45.059787,154.497922 L45.059787,154.497922 Z M56.495483,149.095784 C56.495483,145.377429 56.2850101,140.326078 54.8818572,136.888354 C52.356182,130.854796 44.1477376,129.591959 38.3948108,129.591959 C32.2209381,129.591959 21.206188,132.117634 21.0658727,138.642295 C20.995715,140.606709 22.1182373,142.36065 24.2931243,142.36065 C27.1695877,142.36065 31.7999922,139.834975 36.2900815,139.834975 C41.2712742,139.834975 44.2880529,140.817182 44.9896293,145.166956 L44.07758,145.166956 C40.3592248,145.166956 34.6764557,145.517744 31.1685734,146.780581 C25.5559619,148.815153 17.6983058,153.164927 17.6983058,159.759746 C17.6983058,166.845668 23.7318632,173.089698 30.8177852,173.089698 C33.3434604,173.089698 36.0796085,172.949383 38.5351261,172.388122 C40.4293825,171.967176 42.8849,171.125284 45.2001023,169.932604 C45.8315211,171.616387 47.234674,172.668752 49.7603491,172.668752 C56.0043795,172.668752 56.3551677,164.811096 56.3551677,160.250849 C56.3551677,156.532494 56.495483,152.814139 56.495483,149.095784 L56.495483,149.095784 Z M119.17744,153.445558 C119.17744,159.61943 116.932396,162.285421 110.477893,162.285421 C106.68938,162.285421 104.514493,161.092741 101.708187,159.479115 C101.778345,157.584859 101.848502,155.690602 101.91866,153.796346 C102.058975,151.270671 102.058975,148.744995 102.058975,146.149163 L102.058975,144.675852 C104.58465,143.272699 107.320799,142.290492 110.26742,142.290492 C117.774288,142.290492 119.17744,147.061212 119.17744,153.445558 L119.17744,153.445558 Z M130.402663,148.60468 C130.402663,142.500965 127.245569,135.765831 121.773273,132.678895 C119.808859,131.62653 115.599401,130.924954 113.354356,130.924954 C109.425528,130.924954 105.426542,132.117634 101.91866,134.01189 C101.91866,130.714481 101.848502,127.417072 101.848502,124.119662 C101.848502,121.173041 101.357399,117.103898 97.568886,117.103898 C92.3772203,117.103898 90.3426487,123.909189 90.4128063,128.118648 L90.4128063,128.609752 C90.6232792,140.045448 90.7635945,151.481144 90.7635945,162.846682 C90.7635945,166.565037 89.9918604,172.809067 95.5343143,172.809067 C97.2180978,172.809067 98.551093,171.897018 99.6034577,170.564023 C102.760552,172.037333 106.759537,172.879225 108.723951,172.879225 C116.090504,172.879225 121.141854,169.441501 125.421471,163.688574 C128.227776,159.829903 130.402663,153.445558 130.402663,148.60468 L130.402663,148.60468 Z M165.005973,145.307271 C158.8321,145.658059 152.728385,145.798374 146.62467,145.798374 C148.729399,141.308285 152.237281,139.554344 156.236267,139.554344 C159.393361,139.554344 164.093923,140.606709 165.005973,145.307271 L165.005973,145.307271 Z M174.336939,147.762788 C174.336939,139.905132 170.969372,131.837003 162.41014,130.223377 C160.235253,129.802432 157.990208,129.802432 155.745164,129.802432 C150.343025,129.802432 142.906315,133.590944 139.819378,138.010876 C136.521969,142.571123 133.785821,148.885311 133.785821,154.497922 C133.785821,165.091727 144.730413,173.159856 154.692799,173.159856 C161.147302,173.159856 171.320161,171.54623 173.705521,164.530465 C173.845836,164.10952 173.915993,163.618416 173.915993,163.127313 C173.915993,161.654002 173.214417,159.198484 171.390318,159.198484 C167.46149,159.198484 164.514869,161.864475 160.586041,162.215263 C159.323203,162.355578 158.060366,162.425736 156.797528,162.425736 C155.043587,162.425736 152.167124,162.285421 150.623656,161.583844 C148.168138,160.391164 145.502148,158.005805 144.800571,155.269656 C150.904286,155.339814 156.937844,155.409972 163.041559,155.409972 C168.022751,155.409972 174.336939,154.006819 174.336939,147.762788 L174.336939,147.762788 Z M205.01142,164.530465 C205.01142,162.846682 204.309844,160.882268 202.34543,160.882268 C200.030228,160.882268 198.135971,162.706367 195.820769,162.706367 C191.120207,162.706367 191.120207,155.76076 191.120207,152.463351 C191.120207,150.358621 191.190364,148.253892 191.190364,146.079005 C191.190364,144.325064 191.33068,142.500965 191.470995,140.747024 C192.032256,140.676866 192.593517,140.676866 193.224936,140.676866 C196.452188,140.676866 204.590475,138.572137 204.590475,134.432836 C204.590475,131.3459 202.34543,130.293535 199.609282,130.293535 C197.715025,130.293535 195.820769,130.714481 193.926513,130.714481 L192.102414,130.714481 L192.102414,129.24117 C192.102414,127.76786 192.383044,126.364707 192.383044,124.891396 C192.383044,122.646352 191.61131,119.980361 188.805005,119.980361 C188.313901,119.980361 187.75264,120.120677 187.261536,120.190834 C183.823812,121.102884 181.438452,126.013919 181.438452,129.381486 L181.438452,131.205584 C178.982934,132.117634 176.527417,135.274728 176.527417,137.519772 C176.527417,140.115605 178.2112,140.887339 180.526403,140.887339 L181.438452,140.887339 C181.368294,146.499951 181.298137,152.18272 181.298137,157.795332 C181.298137,164.600623 183.893969,173.159856 192.102414,173.159856 C197.153764,173.159856 205.01142,170.704338 205.01142,164.530465 L205.01142,164.530465 Z M233.440857,164.530465 C233.440857,162.846682 232.73928,160.882268 230.774866,160.882268 C228.459664,160.882268 226.565408,162.706367 224.250205,162.706367 C219.549643,162.706367 219.549643,155.76076 219.549643,152.463351 C219.549643,150.358621 219.619801,148.253892 219.619801,146.079005 C219.619801,144.325064 219.760116,142.500965 219.900432,140.747024 C220.461693,140.676866 221.022954,140.676866 221.654373,140.676866 C224.881624,140.676866 233.019911,138.572137 233.019911,134.432836 C233.019911,131.3459 230.774866,130.293535 228.038718,130.293535 C226.144462,130.293535 224.250205,130.714481 222.355949,130.714481 L220.53185,130.714481 L220.53185,129.24117 C220.53185,127.76786 220.812481,126.364707 220.812481,124.891396 C220.812481,122.646352 220.040747,119.980361 217.234441,119.980361 C216.743338,119.980361 216.182076,120.120677 215.690973,120.190834 C212.253248,121.102884 209.867888,126.013919 209.867888,129.381486 L209.867888,131.205584 C207.412371,132.117634 204.956853,135.274728 204.956853,137.519772 C204.956853,140.115605 206.640637,140.887339 208.955839,140.887339 L209.867888,140.887339 C209.797731,146.499951 209.727573,152.18272 209.727573,157.795332 C209.727573,164.600623 212.323406,173.159856 220.53185,173.159856 C225.583201,173.159856 233.440857,170.704338 233.440857,164.530465 L233.440857,164.530465 Z M265.939437,145.307271 C259.765564,145.658059 253.661849,145.798374 247.558134,145.798374 C249.662863,141.308285 253.170745,139.554344 257.169731,139.554344 C260.326825,139.554344 265.027387,140.606709 265.939437,145.307271 L265.939437,145.307271 Z M275.270403,147.762788 C275.270403,139.905132 271.902836,131.837003 263.343604,130.223377 C261.168717,129.802432 258.923672,129.802432 256.678628,129.802432 C251.276489,129.802432 243.839779,133.590944 240.752842,138.010876 C237.455433,142.571123 234.719285,148.885311 234.719285,154.497922 C234.719285,165.091727 245.663878,173.159856 255.626263,173.159856 C262.080766,173.159856 272.253625,171.54623 274.638985,164.530465 C274.7793,164.10952 274.849458,163.618416 274.849458,163.127313 C274.849458,161.654002 274.147881,159.198484 272.323782,159.198484 C268.394954,159.198484 265.448333,161.864475 261.519505,162.215263 C260.256668,162.355578 258.99383,162.425736 257.730992,162.425736 C255.977051,162.425736 253.100588,162.285421 251.55712,161.583844 C249.101602,160.391164 246.435612,158.005805 245.734035,155.269656 C251.83775,155.339814 257.871308,155.409972 263.975023,155.409972 C268.956215,155.409972 275.270403,154.006819 275.270403,147.762788 L275.270403,147.762788 Z M310.084185,137.58993 C310.084185,133.169998 307.27788,130.504008 302.857948,130.504008 C298.157386,130.504008 294.859977,132.047476 291.983513,134.362678 C291.913356,132.187791 290.931149,130.43385 288.405473,130.43385 C281.459867,130.43385 281.319551,138.572137 281.319551,143.623487 C281.319551,148.885311 281.249394,154.147134 281.249394,159.3388 C281.249394,162.00479 281.038921,164.670781 281.038921,167.406929 C281.038921,170.35355 282.652547,172.177649 285.669325,172.177649 C291.001306,172.177649 291.702883,166.705352 291.702883,162.636209 L291.702883,145.307271 C294.1584,143.413015 297.034864,141.799389 299.841169,141.799389 C302.156372,141.799389 303.98047,143.413015 306.155357,143.413015 C309.101978,143.413015 310.084185,139.97529 310.084185,137.58993 L310.084185,137.58993 Z M393.602963,136.467408 C393.602963,133.310314 392.410283,129.381486 388.62177,129.381486 C385.043731,129.381486 384.201839,132.117634 383.991366,135.064255 C383.430105,142.36065 381.816479,147.412 379.71175,154.287449 C378.238439,150.148148 372.345197,131.907161 368.97763,130.363693 C368.205896,130.012904 367.434162,129.802432 366.59227,129.802432 C364.487541,129.802432 362.172339,131.205584 361.470762,133.240156 C360.137767,137.098827 359.085402,141.027655 357.682249,144.886325 C356.419412,148.32405 355.296889,151.761774 353.893737,155.129341 C352.209953,149.446572 350.8068,143.623487 349.964909,137.800403 C349.754436,136.046462 349.543963,133.871575 348.772229,132.328107 C348.14081,130.924954 347.018287,129.942747 345.404662,129.942747 C341.125045,129.942747 338.248582,135.906147 338.248582,139.554344 C338.248582,140.957497 338.809843,142.781596 339.230789,144.114591 C339.79205,145.658059 340.353311,147.201527 340.914572,148.674838 C342.528198,153.094769 343.720878,157.584859 345.124031,162.00479 C345.75545,164.179677 346.03608,166.424722 346.807815,168.529451 C347.719864,171.195442 349.473805,173.440486 352.560741,173.440486 C355.998466,173.440486 357.682249,169.16087 358.383826,166.354564 C359.927294,160.180691 363.084388,154.287449 365.539906,148.464365 C367.855108,153.656031 370.450941,158.847696 372.204882,164.319992 C372.695985,165.863461 373.187089,167.336771 373.958823,168.810082 C374.800715,170.564023 376.274025,172.528437 378.448912,172.528437 C384.061524,172.528437 385.604992,166.705352 386.446883,162.285421 C387.990352,154.217292 393.602963,144.74601 393.602963,136.467408 L393.602963,136.467408 Z M425.329809,154.497922 C425.189494,156.602652 425.119336,158.637223 424.979021,160.741953 C422.242873,161.654002 419.366409,162.215263 416.489946,162.215263 C413.543325,162.215263 409.965285,162.074948 409.965285,158.42675 C409.965285,154.848711 415.367423,153.866504 417.963256,153.866504 C420.629247,153.866504 422.874291,154.287449 425.329809,154.497922 L425.329809,154.497922 Z M436.765505,149.095784 C436.765505,145.377429 436.555032,140.326078 435.151879,136.888354 C432.626204,130.854796 424.41776,129.591959 418.664833,129.591959 C412.49096,129.591959 401.47621,132.117634 401.335895,138.642295 C401.265737,140.606709 402.388259,142.36065 404.563146,142.36065 C407.43961,142.36065 412.070014,139.834975 416.560103,139.834975 C421.541296,139.834975 424.558075,140.817182 425.259651,145.166956 L424.347602,145.166956 C420.629247,145.166956 414.946478,145.517744 411.438595,146.780581 C405.825984,148.815153 397.968328,153.164927 397.968328,159.759746 C397.968328,166.845668 404.001885,173.089698 411.087807,173.089698 C413.613482,173.089698 416.34963,172.949383 418.805148,172.388122 C420.699404,171.967176 423.154922,171.125284 425.470124,169.932604 C426.101543,171.616387 427.504696,172.668752 430.030371,172.668752 C436.274401,172.668752 436.62519,164.811096 436.62519,160.250849 C436.62519,156.532494 436.765505,152.814139 436.765505,149.095784 L436.765505,149.095784 Z M480.980411,135.274728 C480.980411,133.099841 478.94584,131.135427 476.770953,131.135427 C475.999219,131.135427 475.3678,131.416057 474.806539,131.837003 C473.824332,132.53858 473.052598,133.871575 472.491336,134.994097 C472.070391,135.906147 471.719602,136.888354 471.298656,137.870561 C468.772981,143.693645 465.896518,149.306257 463.020054,154.989026 C459.652488,149.446572 457.126812,143.202542 454.601137,137.309299 C453.548772,134.783624 451.373886,131.486215 448.286949,131.486215 C445.200013,131.486215 442.393707,135.20457 442.393707,138.151191 C442.393707,140.045448 443.235599,141.869546 444.217806,143.483172 C444.98954,144.675852 445.901589,145.93869 446.46285,147.271685 C448.286949,151.621459 450.461836,155.830918 452.496408,160.180691 C453.478615,162.215263 454.390664,164.319992 455.793817,166.144091 C456.074448,166.565037 456.425236,166.985983 456.846182,167.336771 C456.074448,168.739924 455.372871,170.143077 454.671295,171.54623 C453.268142,174.563009 452.14562,177.860418 452.14562,181.227985 C452.14562,183.262556 453.197984,186.559966 455.723659,186.559966 C457.828389,186.559966 459.371857,185.718074 460.213749,183.75366 C460.77501,182.490822 460.915325,181.017512 461.336271,179.684517 C463.511158,173.159856 466.457779,166.705352 469.685031,160.601637 C470.877711,158.356593 471.859918,156.04139 473.052598,153.726188 C475.999219,148.043419 480.980411,141.869546 480.980411,135.274728 L480.980411,135.274728 Z M538.26023,164.530465 C538.26023,162.846682 537.558654,160.882268 535.59424,160.882268 C533.279037,160.882268 531.384781,162.706367 529.069579,162.706367 C524.369017,162.706367 524.369017,155.76076 524.369017,152.463351 C524.369017,150.358621 524.439174,148.253892 524.439174,146.079005 C524.439174,144.325064 524.57949,142.500965 524.719805,140.747024 C525.281066,140.676866 525.842327,140.676866 526.473746,140.676866 C529.700998,140.676866 537.839284,138.572137 537.839284,134.432836 C537.839284,131.3459 535.59424,130.293535 532.858092,130.293535 C530.963835,130.293535 529.069579,130.714481 527.175322,130.714481 L525.351224,130.714481 L525.351224,129.24117 C525.351224,127.76786 525.631854,126.364707 525.631854,124.891396 C525.631854,122.646352 524.86012,119.980361 522.053814,119.980361 C521.562711,119.980361 521.00145,120.120677 520.510346,120.190834 C517.072622,121.102884 514.687262,126.013919 514.687262,129.381486 L514.687262,131.205584 C512.231744,132.117634 509.776227,135.274728 509.776227,137.519772 C509.776227,140.115605 511.46001,140.887339 513.775212,140.887339 L514.687262,140.887339 C514.617104,146.499951 514.546946,152.18272 514.546946,157.795332 C514.546946,164.600623 517.142779,173.159856 525.351224,173.159856 C530.402574,173.159856 538.26023,170.704338 538.26023,164.530465 L538.26023,164.530465 Z M570.127391,152.112562 C570.127391,158.005805 569.706445,163.19747 561.989104,163.19747 C554.622552,163.19747 549.992147,159.128327 549.992147,151.761774 C549.992147,144.114591 551.3953,140.817182 560.375479,140.817182 C567.110613,140.817182 570.127391,145.93869 570.127391,152.112562 L570.127391,152.112562 Z M581.001826,148.744995 C581.001826,137.449615 572.302278,130.644323 561.427843,130.644323 C558.340907,130.644323 555.183813,131.205584 552.447665,132.608737 C544.519851,136.818196 539.328185,146.149163 539.328185,154.989026 C539.328185,166.494879 548.378522,173.370329 559.323114,173.370329 C573.214328,173.370329 581.001826,161.72416 581.001826,148.744995 L581.001826,148.744995 Z M48.7781421,230.431879 C48.7781421,235.623545 46.1823093,238.640324 40.8503283,238.640324 C37.2021308,238.640324 34.2555098,237.237171 31.449204,236.184806 C31.449204,234.992126 31.3790464,233.869604 31.3790464,232.676924 C31.3790464,228.467465 31.659677,224.187849 31.8701499,219.97839 C34.1853521,218.715553 36.5005544,217.733346 38.3246532,217.733346 C44.9194717,217.733346 46.6734128,219.136498 48.216881,225.801475 C48.5676692,227.344943 48.7781421,228.888411 48.7781421,230.431879 L48.7781421,230.431879 Z M60.3541534,225.94179 C60.3541534,215.628616 54.9520148,206.57828 43.6566341,206.57828 C39.3068602,206.57828 35.5183474,207.49033 32.1507805,209.595059 C31.7999922,207.139541 30.0460511,206.29765 27.5203759,206.29765 C23.3109173,206.29765 20.6449268,213.594045 20.6449268,217.031769 C20.6449268,223.135484 21.2763456,229.098884 21.2763456,235.132441 C21.2763456,240.043476 20.9255574,245.024669 20.7150845,249.935704 C20.5747692,252.74201 20.223981,255.548316 20.223981,258.424779 C20.223981,260.810139 21.6972915,263.967233 24.5035973,263.967233 C25.0648584,263.967233 25.6261196,263.826918 26.1172231,263.616445 C30.1162088,261.932661 31.7999922,257.582887 31.7999922,253.513744 L31.7999922,249.023655 C34.1151945,249.444601 36.2900815,249.584916 37.6932344,249.584916 C43.7267918,249.584916 48.4975116,248.813182 52.7069702,244.042462 C56.9164289,239.3419 60.3541534,232.396293 60.3541534,225.94179 L60.3541534,225.94179 Z M104.709375,211.489315 C104.709375,208.823325 103.306222,207.139541 100.570074,207.139541 C97.7637683,207.139541 93.4841521,210.998212 93.2035215,213.804518 C92.8527333,217.031769 92.9228909,220.329178 92.9228909,223.55643 C92.9228909,227.274785 92.9930485,230.99314 93.0632062,234.711495 C90.1867428,236.816225 86.8191759,237.447644 82.6798748,237.447644 C77.6986821,237.447644 77.0672633,230.71251 77.0672633,226.923997 C77.0672633,222.223435 77.6285245,217.59303 78.1897856,212.962626 C78.2599433,212.261049 78.4002586,211.559473 78.4002586,210.857896 C78.4002586,208.051591 76.1552139,207.420172 73.8400117,207.420172 C70.9635483,207.420172 67.5258237,211.489315 66.8944049,214.085148 C66.473459,215.839089 66.473459,217.733346 66.473459,219.557444 C66.473459,226.362736 66.0525132,236.67591 68.8588189,242.849782 C71.2441789,248.041448 76.1552139,248.532551 81.2065643,248.532551 C85.0652348,248.532551 89.555324,247.339871 93.2736791,245.235142 C93.694625,247.199556 94.676832,248.813182 97.0621919,248.813182 C99.4475518,248.813182 102.604646,246.568137 103.586853,244.39325 C104.288429,242.709467 104.498902,240.885368 104.498902,239.061269 C104.498902,236.605752 104.077956,234.150234 104.077956,231.624559 C104.077956,228.256992 103.797326,224.889425 103.797326,221.451701 C103.797326,219.627602 103.867483,217.803503 104.148114,215.909247 C104.358587,214.435936 104.709375,212.962626 104.709375,211.489315 L104.709375,211.489315 Z M138.190162,240.53458 C138.190162,238.850796 137.488586,236.886382 135.524171,236.886382 C133.208969,236.886382 131.314713,238.710481 128.999511,238.710481 C124.298948,238.710481 124.298948,231.764874 124.298948,228.467465 C124.298948,226.362736 124.369106,224.258006 124.369106,222.08312 C124.369106,220.329178 124.509421,218.50508 124.649737,216.751139 C125.210998,216.680981 125.772259,216.680981 126.403678,216.680981 C129.630929,216.680981 137.769216,214.576252 137.769216,210.436951 C137.769216,207.350014 135.524171,206.29765 132.788023,206.29765 C130.893767,206.29765 128.999511,206.718595 127.105254,206.718595 L125.281155,206.718595 L125.281155,205.245285 C125.281155,203.771974 125.561786,202.368822 125.561786,200.895511 C125.561786,198.650466 124.790052,195.984476 121.983746,195.984476 C121.492643,195.984476 120.931382,196.124791 120.440278,196.194949 C117.002553,197.106998 114.617194,202.018033 114.617194,205.3856 L114.617194,207.209699 C112.161676,208.121748 109.706158,211.278842 109.706158,213.523887 C109.706158,216.11972 111.389942,216.891454 113.705144,216.891454 L114.617194,216.891454 C114.547036,222.504065 114.476878,228.186835 114.476878,233.799446 C114.476878,240.604738 117.072711,249.16397 125.281155,249.16397 C130.332506,249.16397 138.190162,246.708453 138.190162,240.53458 L138.190162,240.53458 Z M231.320537,238.850796 C231.320537,234.57118 230.548803,230.291564 230.548803,225.94179 C230.548803,222.08312 231.039906,218.084134 229.987542,214.225463 C228.654546,209.524901 224.37493,206.157334 219.463895,206.29765 L218.902634,206.29765 C213.430338,206.437965 208.519303,208.191906 203.888898,211.068369 C203.608268,211.208685 203.327637,211.419158 203.047006,211.629631 C200.872119,208.472537 197.504552,206.367807 192.593517,206.367807 C188.313901,206.367807 182.98192,207.981433 178.702304,210.647424 C178.2112,208.472537 176.808047,206.929068 173.931584,206.929068 C168.950391,206.929068 167.547238,217.663188 167.547238,221.381543 C167.547238,225.591002 167.19645,241.797418 167.898027,244.744039 C168.459288,247.129398 170.143071,248.532551 172.598589,248.532551 C177.299151,248.532551 179.053092,241.586945 178.912777,237.938747 L178.842619,237.026698 C178.632146,231.835032 178.421673,226.573209 178.421673,221.311385 C181.298137,219.346971 184.455231,217.803503 187.682482,217.803503 C194.838562,217.803503 194.207143,223.837061 194.207143,229.098884 C194.207143,233.799446 193.926513,238.500008 193.926513,243.130413 C193.926513,246.708453 194.838562,248.743024 198.76739,248.743024 C203.678425,248.743024 205.362209,238.710481 205.362209,235.062284 C205.362209,230.99314 205.993627,226.994155 205.993627,222.925011 C205.993627,222.08312 205.993627,221.241228 205.92347,220.469494 C208.238672,218.996183 210.764347,217.943819 213.991599,217.943819 C218.762319,217.943819 219.814683,220.539651 219.814683,224.819268 C219.814683,228.116677 219.954999,231.414086 219.954999,234.711495 C219.954999,237.798432 219.463895,240.885368 219.463895,243.902147 C219.463895,247.129398 221.287994,248.532551 224.445088,248.532551 C229.426281,248.532551 231.320537,243.060255 231.320537,238.850796 L231.320537,238.850796 Z M275.886232,211.278842 C275.886232,209.103955 273.85166,207.139541 271.676773,207.139541 C270.905039,207.139541 270.27362,207.420172 269.712359,207.841118 C268.730152,208.542694 267.958418,209.875689 267.397157,210.998212 C266.976211,211.910261 266.625423,212.892468 266.204477,213.874675 C263.678801,219.69776 260.802338,225.310371 257.925875,230.99314 C254.558308,225.450686 252.032633,219.206656 249.506957,213.313414 C248.454593,210.787739 246.279706,207.49033 243.192769,207.49033 C240.105833,207.49033 237.299527,211.208685 237.299527,214.155306 C237.299527,216.049562 238.141419,217.873661 239.123626,219.487287 C239.89536,220.679967 240.807409,221.942804 241.368671,223.275799 C243.192769,227.625573 245.367656,231.835032 247.402228,236.184806 C248.384435,238.219378 249.296484,240.324107 250.699637,242.148206 C250.980268,242.569152 251.331056,242.990097 251.752002,243.340886 C250.980268,244.744039 250.278691,246.147191 249.577115,247.550344 C248.173962,250.567123 247.05144,253.864532 247.05144,257.232099 C247.05144,259.266671 248.103804,262.56408 250.62948,262.56408 C252.734209,262.56408 254.277677,261.722188 255.119569,259.757774 C255.68083,258.494937 255.821145,257.021626 256.242091,255.688631 C258.416978,249.16397 261.363599,242.709467 264.590851,236.605752 C265.783531,234.360707 266.765738,232.045505 267.958418,229.730303 C270.905039,224.047534 275.886232,217.873661 275.886232,211.278842 L275.886232,211.278842 Z M341.865598,214.786725 C341.865598,207.560487 334.428888,206.367807 328.675961,206.367807 C317.310423,206.367807 306.435988,217.172084 306.435988,228.537623 C306.435988,239.201585 313.030807,248.88334 324.466503,248.88334 C329.237222,248.88334 341.655125,246.217349 341.655125,239.762846 C341.655125,237.938747 340.672918,236.535594 338.778662,236.535594 C338.287558,236.535594 337.866613,236.67591 337.445667,236.746067 C334.218415,237.587959 331.131479,238.289535 327.763912,238.289535 C321.940827,238.289535 317.240265,232.18582 317.240265,226.643366 C317.240265,220.329178 320.327202,217.242242 326.641389,217.242242 C331.833055,217.242242 334.990149,220.469494 337.93677,220.469494 C340.953549,220.469494 341.865598,217.242242 341.865598,214.786725 L341.865598,214.786725 Z M374.855282,228.116677 C374.855282,234.009919 374.434336,239.201585 366.716995,239.201585 C359.350442,239.201585 354.720038,235.132441 354.720038,227.765889 C354.720038,220.118705 356.123191,216.821296 365.103369,216.821296 C371.838503,216.821296 374.855282,221.942804 374.855282,228.116677 L374.855282,228.116677 Z M385.729716,224.74911 C385.729716,213.453729 377.030169,206.648438 366.155734,206.648438 C363.068797,206.648438 359.911703,207.209699 357.175555,208.612852 C349.247741,212.82231 344.056076,222.153277 344.056076,230.99314 C344.056076,242.498994 353.106412,249.374443 364.051004,249.374443 C377.942218,249.374443 385.729716,237.728274 385.729716,224.74911 L385.729716,224.74911 Z M455.832794,238.850796 C455.832794,234.57118 455.061059,230.291564 455.061059,225.94179 C455.061059,222.08312 455.552163,218.084134 454.499798,214.225463 C453.166803,209.524901 448.887187,206.157334 443.976152,206.29765 L443.414891,206.29765 C437.942594,206.437965 433.031559,208.191906 428.401155,211.068369 C428.120524,211.208685 427.839894,211.419158 427.559263,211.629631 C425.384376,208.472537 422.016809,206.367807 417.105774,206.367807 C412.826158,206.367807 407.494177,207.981433 403.21456,210.647424 C402.723457,208.472537 401.320304,206.929068 398.443841,206.929068 C393.462648,206.929068 392.059495,217.663188 392.059495,221.381543 C392.059495,225.591002 391.708707,241.797418 392.410283,244.744039 C392.971544,247.129398 394.655328,248.532551 397.110845,248.532551 C401.811408,248.532551 403.565349,241.586945 403.425033,237.938747 L403.354876,237.026698 C403.144403,231.835032 402.93393,226.573209 402.93393,221.311385 C405.810393,219.346971 408.967487,217.803503 412.194739,217.803503 C419.350819,217.803503 418.7194,223.837061 418.7194,229.098884 C418.7194,233.799446 418.438769,238.500008 418.438769,243.130413 C418.438769,246.708453 419.350819,248.743024 423.279647,248.743024 C428.190682,248.743024 429.874465,238.710481 429.874465,235.062284 C429.874465,230.99314 430.505884,226.994155 430.505884,222.925011 C430.505884,222.08312 430.505884,221.241228 430.435726,220.469494 C432.750929,218.996183 435.276604,217.943819 438.503855,217.943819 C443.274575,217.943819 444.32694,220.539651 444.32694,224.819268 C444.32694,228.116677 444.467255,231.414086 444.467255,234.711495 C444.467255,237.798432 443.976152,240.885368 443.976152,243.902147 C443.976152,247.129398 445.80025,248.532551 448.957344,248.532551 C453.938537,248.532551 455.832794,243.060255 455.832794,238.850796 L455.832794,238.850796 Z M477.456939,242.00789 C477.456939,239.903161 476.264259,237.517801 476.264259,234.360707 C476.264259,227.13447 476.544889,221.942804 476.544889,214.716567 C476.544889,212.120734 475.702997,209.735374 472.335431,209.735374 C467.213923,209.735374 466.301873,219.066341 466.301873,222.433908 C466.301873,229.940776 466.442188,235.413072 466.442188,242.91994 C466.442188,245.445615 467.354238,248.462394 470.721805,248.462394 C474.019214,248.462394 477.456939,244.884354 477.456939,242.00789 L477.456939,242.00789 Z M478.0182,197.106998 C478.0182,193.949904 476.264259,191.915333 472.686219,191.915333 C469.178337,191.915333 465.319666,196.194949 465.319666,199.211728 C465.319666,201.737403 467.564711,204.263078 470.441174,204.263078 C473.738583,204.263078 478.0182,200.053619 478.0182,197.106998 L478.0182,197.106998 Z M519.4268,214.786725 C519.4268,207.560487 511.99009,206.367807 506.237163,206.367807 C494.871625,206.367807 483.99719,217.172084 483.99719,228.537623 C483.99719,239.201585 490.592009,248.88334 502.027705,248.88334 C506.798424,248.88334 519.216327,246.217349 519.216327,239.762846 C519.216327,237.938747 518.23412,236.535594 516.339864,236.535594 C515.848761,236.535594 515.427815,236.67591 515.006869,236.746067 C511.779617,237.587959 508.692681,238.289535 505.325114,238.289535 C499.502029,238.289535 494.801467,232.18582 494.801467,226.643366 C494.801467,220.329178 497.888404,217.242242 504.202592,217.242242 C509.394257,217.242242 512.551351,220.469494 515.497972,220.469494 C518.514751,220.469494 519.4268,217.242242 519.4268,214.786725 L519.4268,214.786725 Z M48.6378268,304.120791 C48.6378268,310.014034 48.216881,315.205699 40.4995401,315.205699 C33.1329875,315.205699 28.502583,311.136556 28.502583,303.770003 C28.502583,296.12282 29.9057359,292.825411 38.8859143,292.825411 C45.6210481,292.825411 48.6378268,297.946919 48.6378268,304.120791 L48.6378268,304.120791 Z M59.5122617,300.753225 C59.5122617,289.457844 50.8127138,282.652552 39.938279,282.652552 C36.8513426,282.652552 33.6942486,283.213813 30.9581005,284.616966 C23.0302867,288.826425 17.8386211,298.157392 17.8386211,306.997255 C17.8386211,318.503108 26.8889572,325.378558 37.8335496,325.378558 C51.7247632,325.378558 59.5122617,313.732389 59.5122617,300.753225 L59.5122617,300.753225 Z M103.516695,315.977433 C103.306222,310.154349 102.815119,304.331264 102.674803,298.50818 C102.604646,295.491401 102.464331,291.422258 101.482123,288.545794 C99.5878671,283.354129 93.3438368,282.161449 88.4328017,282.161449 C85.2757077,282.161449 80.6453032,284.055705 77.137421,286.441065 C76.7866327,283.985548 75.2431646,282.792868 72.5070164,282.792868 C66.5436167,282.792868 65.6315673,288.756267 65.6315673,293.386672 C65.6315673,298.648495 65.9823555,303.840161 65.9823555,309.031827 C65.9823555,311.697817 65.7718826,314.29365 65.4210944,316.889483 C65.3509367,317.380586 65.3509367,317.801532 65.3509367,318.222478 C65.3509367,321.239257 66.683932,324.185878 70.1216565,324.185878 C76.0148987,324.185878 76.5761598,317.099956 76.5761598,312.680024 C76.5761598,307.558516 76.7866327,302.36685 76.9971057,297.245342 C79.5929385,295.000298 82.4694019,293.316514 85.20555,293.316514 C92.0108415,293.316514 92.7825756,299.560545 92.7825756,304.962683 C92.7825756,309.101984 92.2914721,313.241285 92.2914721,317.380586 C92.2914721,320.116734 92.712418,325.097927 96.4307731,325.097927 C101.271651,325.097927 103.727168,320.888468 103.586853,316.538694 L103.516695,315.977433 Z M162.199667,316.538694 C162.199667,314.854911 161.49809,312.890497 159.533676,312.890497 C157.218474,312.890497 155.324218,314.714596 153.009015,314.714596 C148.308453,314.714596 148.308453,307.768989 148.308453,304.47158 C148.308453,302.36685 148.378611,300.262121 148.378611,298.087234 C148.378611,296.333293 148.518926,294.509194 148.659242,292.755253 C149.220503,292.685095 149.781764,292.685095 150.413183,292.685095 C153.640434,292.685095 161.778721,290.580366 161.778721,286.441065 C161.778721,283.354129 159.533676,282.301764 156.797528,282.301764 C154.903272,282.301764 153.009015,282.72271 151.114759,282.72271 L149.29066,282.72271 L149.29066,281.249399 C149.29066,279.776089 149.571291,278.372936 149.571291,276.899625 C149.571291,274.654581 148.799557,271.98859 145.993251,271.98859 C145.502148,271.98859 144.940886,272.128906 144.449783,272.199063 C141.012058,273.111113 138.626698,278.022148 138.626698,281.389715 L138.626698,283.213813 C136.171181,284.125863 133.715663,287.282957 133.715663,289.528001 C133.715663,292.123834 135.399447,292.895568 137.714649,292.895568 L138.626698,292.895568 C138.556541,298.50818 138.486383,304.190949 138.486383,309.803561 C138.486383,316.608852 141.082216,325.168085 149.29066,325.168085 C154.342011,325.168085 162.199667,322.712567 162.199667,316.538694 L162.199667,316.538694 Z M204.871105,317.380586 C204.871105,312.118763 204.380002,306.85694 204.380002,301.595116 C204.380002,293.947933 204.800947,286.160435 196.311873,282.933183 C194.277301,282.161449 192.102414,281.810661 189.927527,281.810661 C185.647911,281.810661 181.50861,283.354129 178.000727,285.809646 C178.2112,281.459872 178.351516,277.039941 178.351516,272.690167 C178.351516,270.445122 177.93057,268.200078 175.194422,268.200078 C170.283387,268.200078 166.775504,274.163477 166.775504,278.583409 C166.775504,282.652552 167.056135,286.721696 167.056135,290.790839 C167.056135,297.385658 167.056135,304.050634 166.635189,310.645452 C166.494874,312.680024 166.214243,314.784753 166.214243,316.819325 C166.214243,319.625631 166.705347,324.536666 170.493859,324.536666 C175.404895,324.536666 178.141043,319.485315 178.141043,315.065384 C178.141043,311.697817 177.369309,308.260092 177.369309,304.75221 C177.369309,302.226535 177.439466,299.630702 177.509624,297.034869 C179.824826,295.140613 182.841605,293.45683 185.297122,293.45683 C192.80399,293.45683 193.575724,295.351086 193.575724,302.36685 C193.575724,307.979462 193.154779,313.521916 193.154779,319.134527 C193.154779,322.642409 194.066828,325.238242 198.135971,325.238242 C201.714011,325.238242 204.871105,320.748153 204.871105,317.380586 L204.871105,317.380586 Z M241.579144,297.3155 C235.405271,297.666288 229.301556,297.806603 223.197841,297.806603 C225.30257,293.316514 228.810452,291.562573 232.809438,291.562573 C235.966532,291.562573 240.667094,292.614938 241.579144,297.3155 L241.579144,297.3155 Z M250.91011,299.771017 C250.91011,291.913361 247.542543,283.845232 238.983311,282.231606 C236.808424,281.810661 234.563379,281.810661 232.318335,281.810661 C226.916196,281.810661 219.479486,285.599173 216.392549,290.019105 C213.09514,294.579352 210.358992,300.89354 210.358992,306.506151 C210.358992,317.099956 221.303584,325.168085 231.26597,325.168085 C237.720473,325.168085 247.893332,323.554459 250.278691,316.538694 C250.419007,316.117749 250.489164,315.626645 250.489164,315.135542 C250.489164,313.662231 249.787588,311.206713 247.963489,311.206713 C244.034661,311.206713 241.08804,313.872704 237.159212,314.223492 C235.896374,314.363807 234.633537,314.433965 233.370699,314.433965 C231.616758,314.433965 228.740295,314.29365 227.196827,313.592073 C224.741309,312.399393 222.075319,310.014034 221.373742,307.277885 C227.477457,307.348043 233.511015,307.418201 239.61473,307.418201 C244.595922,307.418201 250.91011,306.015048 250.91011,299.771017 L250.91011,299.771017 Z M335.411095,288.475637 C335.411095,285.318543 334.218415,281.389715 330.429902,281.389715 C326.851862,281.389715 326.009971,284.125863 325.799498,287.072484 C325.238237,294.368879 323.624611,299.420229 321.519881,306.295678 C320.046571,302.156377 314.153329,283.91539 310.785762,282.371922 C310.014028,282.021134 309.242294,281.810661 308.400402,281.810661 C306.295673,281.810661 303.98047,283.213813 303.278894,285.248385 C301.945899,289.107056 300.893534,293.035884 299.490381,296.894554 C298.227544,300.332279 297.105021,303.770003 295.701868,307.13757 C294.018085,301.454801 292.614932,295.631716 291.77304,289.808632 C291.562567,288.054691 291.352094,285.879804 290.58036,284.336336 C289.948942,282.933183 288.826419,281.950976 287.212793,281.950976 C282.933177,281.950976 280.056714,287.914376 280.056714,291.562573 C280.056714,292.965726 280.617975,294.789825 281.038921,296.12282 C281.600182,297.666288 282.161443,299.209756 282.722704,300.683067 C284.33633,305.102998 285.52901,309.593088 286.932163,314.013019 C287.563582,316.187906 287.844212,318.432951 288.615946,320.53768 C289.527996,323.203671 291.281937,325.448715 294.368873,325.448715 C297.806598,325.448715 299.490381,321.169099 300.191958,318.362793 C301.735426,312.188921 304.89252,306.295678 307.348037,300.472594 C309.66324,305.66426 312.259072,310.855925 314.013014,316.328222 C314.504117,317.87169 314.995221,319.345 315.766955,320.818311 C316.608846,322.572252 318.082157,324.536666 320.257044,324.536666 C325.869655,324.536666 327.413124,318.713581 328.255015,314.29365 C329.798483,306.225521 335.411095,296.754239 335.411095,288.475637 L335.411095,288.475637 Z M372.048976,297.3155 C365.875103,297.666288 359.771388,297.806603 353.667673,297.806603 C355.772402,293.316514 359.280285,291.562573 363.27927,291.562573 C366.436364,291.562573 371.136926,292.614938 372.048976,297.3155 L372.048976,297.3155 Z M381.379943,299.771017 C381.379943,291.913361 378.012376,283.845232 369.453143,282.231606 C367.278256,281.810661 365.033211,281.810661 362.788167,281.810661 C357.386028,281.810661 349.949318,285.599173 346.862382,290.019105 C343.564972,294.579352 340.828824,300.89354 340.828824,306.506151 C340.828824,317.099956 351.773417,325.168085 361.735802,325.168085 C368.190305,325.168085 378.363164,323.554459 380.748524,316.538694 C380.888839,316.117749 380.958997,315.626645 380.958997,315.135542 C380.958997,313.662231 380.25742,311.206713 378.433321,311.206713 C374.504493,311.206713 371.557872,313.872704 367.629044,314.223492 C366.366207,314.363807 365.103369,314.433965 363.840531,314.433965 C362.08659,314.433965 359.210127,314.29365 357.666659,313.592073 C355.211141,312.399393 352.545151,310.014034 351.843574,307.277885 C357.947289,307.348043 363.980847,307.418201 370.084562,307.418201 C375.065755,307.418201 381.379943,306.015048 381.379943,299.771017 L381.379943,299.771017 Z M416.404198,305.453787 C416.404198,311.627659 414.159153,314.29365 407.70465,314.29365 C403.916137,314.29365 401.74125,313.10097 398.934944,311.487344 C399.005102,309.593088 399.075259,307.698831 399.145417,305.804575 C399.285732,303.2789 399.285732,300.753225 399.285732,298.157392 L399.285732,296.684081 C401.811408,295.280928 404.547556,294.298721 407.494177,294.298721 C415.001045,294.298721 416.404198,299.069441 416.404198,305.453787 L416.404198,305.453787 Z M427.629421,300.612909 C427.629421,294.509194 424.472327,287.77406 419.00003,284.687124 C417.035616,283.634759 412.826158,282.933183 410.581113,282.933183 C406.652285,282.933183 402.653299,284.125863 399.145417,286.020119 C399.145417,282.72271 399.075259,279.425301 399.075259,276.127891 C399.075259,273.18127 398.584156,269.112127 394.795643,269.112127 C389.603977,269.112127 387.569406,275.917418 387.639563,280.126877 L387.639563,280.617981 C387.850036,292.053677 387.990352,303.489373 387.990352,314.854911 C387.990352,318.573266 387.218618,324.817296 392.761071,324.817296 C394.444855,324.817296 395.77785,323.905247 396.830215,322.572252 C399.987309,324.045562 403.986295,324.887454 405.950709,324.887454 C413.317261,324.887454 418.368612,321.44973 422.648228,315.696803 C425.454534,311.838132 427.629421,305.453787 427.629421,300.612909 L427.629421,300.612909 Z M448.551989,316.328222 C448.551989,312.259078 445.956156,310.014034 442.167644,310.014034 C441.67654,310.014034 441.255594,310.084191 440.834648,310.154349 C437.677554,310.645452 433.748726,315.205699 433.748726,318.362793 C433.748726,321.73036 436.765505,324.536666 439.992757,324.536666 C443.570796,324.536666 448.551989,320.116734 448.551989,316.328222 L448.551989,316.328222 Z" id="There’s-got-to-be-a-" sketch:type="MSShapeGroup"></path>
        </g>
    </g>
</svg>