<?xml version="1.0" encoding="UTF-8" standalone="no"?>
<svg width="298px" height="51px" viewBox="0 0 298 51" version="1.1" xmlns="http://www.w3.org/2000/svg" xmlns:xlink="http://www.w3.org/1999/xlink" xmlns:sketch="http://www.bohemiancoding.com/sketch/ns">
    <!-- Generator: Sketch 3.2.2 (9983) - http://www.bohemiancoding.com/sketch -->
    <title>Features</title>
    <desc>Created with Sketch.</desc>
    <defs></defs>
    <g id="Page-1" stroke="none" stroke-width="1" fill="none" fill-rule="evenodd" sketch:type="MSPage">
        <path d="M35.32,6.12 C35.32,1.384 27.896,0.488 24.44,0.488 C19.96,0.488 2.296,0.488 0.888,5.48 C0.76,6.056 0.696,6.696 0.696,7.336 C0.696,8.744 1.08,9.96 1.848,10.792 C1.464,17.768 0.888,24.68 0.888,31.592 C0.888,33.32 0.952,34.984 1.016,36.712 C1.272,40.424 0.248,49.64 5.88,49.64 C11.192,49.64 12.344,44.584 12.344,40.296 C12.344,37.992 12.088,35.688 11.896,33.448 C11.832,32.232 11.768,31.016 11.704,29.8 C13.944,29.48 16.184,29.224 18.424,29.224 C23.032,29.224 32.44,30.12 32.44,23.144 C32.44,19.112 26.296,18.6 23.352,18.6 C19.448,18.6 15.416,18.6 11.512,19.304 C11.576,16.872 11.704,14.44 11.896,12.008 C16.632,11.688 21.304,11.304 26.04,11.304 C28.984,11.304 35.32,10.024 35.32,6.12 L35.32,6.12 Z M65.144,25.448 C59.512,25.768 53.944,25.896 48.376,25.896 C50.296,21.8 53.496,20.2 57.144,20.2 C60.024,20.2 64.312,21.16 65.144,25.448 L65.144,25.448 Z M73.656,27.688 C73.656,20.52 70.584,13.16 62.776,11.688 C60.792,11.304 58.744,11.304 56.696,11.304 C51.768,11.304 44.984,14.76 42.168,18.792 C39.16,22.952 36.664,28.712 36.664,33.832 C36.664,43.496 46.648,50.856 55.736,50.856 C61.624,50.856 70.904,49.384 73.08,42.984 C73.208,42.6 73.272,42.152 73.272,41.704 C73.272,40.36 72.632,38.12 70.968,38.12 C67.384,38.12 64.696,40.552 61.112,40.872 C59.96,41 58.808,41.064 57.656,41.064 C56.056,41.064 53.432,40.936 52.024,40.296 C49.784,39.208 47.352,37.032 46.712,34.536 C52.28,34.6 57.784,34.664 63.352,34.664 C67.896,34.664 73.656,33.384 73.656,27.688 L73.656,27.688 Z M103.288,33.832 C103.16,35.752 103.096,37.608 102.968,39.528 C100.472,40.36 97.848,40.872 95.224,40.872 C92.536,40.872 89.272,40.744 89.272,37.416 C89.272,34.152 94.2,33.256 96.568,33.256 C99,33.256 101.048,33.64 103.288,33.832 L103.288,33.832 Z M113.72,28.904 C113.72,25.512 113.528,20.904 112.248,17.768 C109.944,12.264 102.456,11.112 97.208,11.112 C91.576,11.112 81.528,13.416 81.4,19.368 C81.336,21.16 82.36,22.76 84.344,22.76 C86.968,22.76 91.192,20.456 95.288,20.456 C99.832,20.456 102.584,21.352 103.224,25.32 L102.392,25.32 C99,25.32 93.816,25.64 90.616,26.792 C85.496,28.648 78.328,32.616 78.328,38.632 C78.328,45.096 83.832,50.792 90.296,50.792 C92.6,50.792 95.096,50.664 97.336,50.152 C99.064,49.768 101.304,49 103.416,47.912 C103.992,49.448 105.272,50.408 107.576,50.408 C113.272,50.408 113.592,43.24 113.592,39.08 C113.592,35.688 113.72,32.296 113.72,28.904 L113.72,28.904 Z M145.72,42.984 C145.72,41.448 145.08,39.656 143.288,39.656 C141.176,39.656 139.448,41.32 137.336,41.32 C133.048,41.32 133.048,34.984 133.048,31.976 C133.048,30.056 133.112,28.136 133.112,26.152 C133.112,24.552 133.24,22.888 133.368,21.288 C133.88,21.224 134.392,21.224 134.968,21.224 C137.912,21.224 145.336,19.304 145.336,15.528 C145.336,12.712 143.288,11.752 140.792,11.752 C139.064,11.752 137.336,12.136 135.608,12.136 L133.944,12.136 L133.944,10.792 C133.944,9.448 134.2,8.168 134.2,6.824 C134.2,4.776 133.496,2.344 130.936,2.344 C130.488,2.344 129.976,2.472 129.528,2.536 C126.392,3.368 124.216,7.848 124.216,10.92 L124.216,12.584 C121.976,13.416 119.736,16.296 119.736,18.344 C119.736,20.712 121.272,21.416 123.384,21.416 L124.216,21.416 C124.152,26.536 124.088,31.72 124.088,36.84 C124.088,43.048 126.456,50.856 133.944,50.856 C138.552,50.856 145.72,48.616 145.72,42.984 L145.72,42.984 Z M185.656,16.488 C185.656,14.056 184.376,12.52 181.88,12.52 C179.32,12.52 175.416,16.04 175.16,18.6 C174.84,21.544 174.904,24.552 174.904,27.496 C174.904,30.888 174.968,34.28 175.032,37.672 C172.408,39.592 169.336,40.168 165.56,40.168 C161.016,40.168 160.44,34.024 160.44,30.568 C160.44,26.28 160.952,22.056 161.464,17.832 C161.528,17.192 161.656,16.552 161.656,15.912 C161.656,13.352 159.608,12.776 157.496,12.776 C154.872,12.776 151.736,16.488 151.16,18.856 C150.776,20.456 150.776,22.184 150.776,23.848 C150.776,30.056 150.392,39.464 152.952,45.096 C155.128,49.832 159.608,50.28 164.216,50.28 C167.736,50.28 171.832,49.192 175.224,47.272 C175.608,49.064 176.504,50.536 178.68,50.536 C180.856,50.536 183.736,48.488 184.632,46.504 C185.272,44.968 185.464,43.304 185.464,41.64 C185.464,39.4 185.08,37.16 185.08,34.856 C185.08,31.784 184.824,28.712 184.824,25.576 C184.824,23.912 184.888,22.248 185.144,20.52 C185.336,19.176 185.656,17.832 185.656,16.488 L185.656,16.488 Z M221.752,18.408 C221.752,14.376 219.192,11.944 215.16,11.944 C210.872,11.944 207.864,13.352 205.24,15.464 C205.176,13.48 204.28,11.88 201.976,11.88 C195.64,11.88 195.512,19.304 195.512,23.912 C195.512,28.712 195.448,33.512 195.448,38.248 C195.448,40.68 195.256,43.112 195.256,45.608 C195.256,48.296 196.728,49.96 199.48,49.96 C204.344,49.96 204.984,44.968 204.984,41.256 L204.984,25.448 C207.224,23.72 209.848,22.248 212.408,22.248 C214.52,22.248 216.184,23.72 218.168,23.72 C220.856,23.72 221.752,20.584 221.752,18.408 L221.752,18.408 Z M251.768,25.448 C246.136,25.768 240.568,25.896 235,25.896 C236.92,21.8 240.12,20.2 243.768,20.2 C246.648,20.2 250.936,21.16 251.768,25.448 L251.768,25.448 Z M260.28,27.688 C260.28,20.52 257.208,13.16 249.4,11.688 C247.416,11.304 245.368,11.304 243.32,11.304 C238.392,11.304 231.608,14.76 228.792,18.792 C225.784,22.952 223.288,28.712 223.288,33.832 C223.288,43.496 233.272,50.856 242.36,50.856 C248.248,50.856 257.528,49.384 259.704,42.984 C259.832,42.6 259.896,42.152 259.896,41.704 C259.896,40.36 259.256,38.12 257.592,38.12 C254.008,38.12 251.32,40.552 247.736,40.872 C246.584,41 245.432,41.064 244.28,41.064 C242.68,41.064 240.056,40.936 238.648,40.296 C236.408,39.208 233.976,37.032 233.336,34.536 C238.904,34.6 244.408,34.664 249.976,34.664 C254.52,34.664 260.28,33.384 260.28,27.688 L260.28,27.688 Z M297.912,37.48 C297.912,22.76 276.216,28.776 276.216,23.592 C276.216,21.48 279.288,20.776 280.76,20.776 C282.872,20.776 285.88,20.712 287.928,21.224 C289.208,21.544 291.768,23.016 292.728,23.016 C295.032,23.016 295.8,20.712 295.8,18.92 C295.8,12.392 289.208,11.496 284.088,11.496 C280.952,11.496 276.024,12.776 273.208,14.184 C269.432,16.04 266.168,21.672 266.168,25.896 C266.168,33 273.08,34.28 278.392,35.752 C279.8,36.2 288.376,37.16 288.376,38.376 C288.376,41.384 281.784,41.832 279.672,41.832 C273.656,41.832 272.888,38.952 269.56,38.952 C267.064,38.952 265.848,40.168 265.848,42.664 C265.848,48.296 271.928,50.728 277.112,50.792 C279.672,50.792 282.296,50.92 284.856,50.408 C290.808,49.192 297.912,44.136 297.912,37.48 L297.912,37.48 Z" id="Features" fill="#000000" sketch:type="MSShapeGroup"></path>
    </g>
</svg>