<?xml version="1.0" encoding="utf-8"?>
<!-- Generator: Adobe Illustrator 13.0.0, SVG Export Plug-In . SVG Version: 6.00 Build 14948)  -->
<!DOCTYPE svg PUBLIC "-//W3C//DTD SVG 1.1//EN" "http://www.w3.org/Graphics/SVG/1.1/DTD/svg11.dtd">
<svg version="1.1" id="Layer_1" xmlns="http://www.w3.org/2000/svg" xmlns:xlink="http://www.w3.org/1999/xlink" x="0px" y="0px"
	 width="287.615px" height="56.46px" viewBox="0 0 287.615 56.46" enable-background="new 0 0 287.615 56.46" xml:space="preserve">
<g>
	<path fill="#010101" d="M30.244,55.965c-1.414,0.142-2.756,0.212-4.169,0.212C10.458,56.177,0,47.626,0,31.728
		C0,17.101,7.49,3.392,22.754,0.636C25.297,0.212,27.912,0,30.456,0c5.865,0,16.252,2.049,16.252,9.681
		c0,3.321-2.261,7.703-6.006,7.703c-3.957,0-5.865-5.159-11.942-5.159c-8.692,0-18.09,7.208-18.09,16.323
		c0,1.131,0.07,2.261,0.141,3.392c0.848,6.995,8.904,12.013,15.475,12.013c2.827,0,6.854-0.919,9.398-2.19
		c2.261-1.131,5.794-3.675,8.268-3.675c2.12,0,3.18,5.158,3.18,6.713C47.133,51.725,35.826,55.47,30.244,55.965z"/>
	<path fill="#010101" d="M71.333,56.46c-11.023,0-20.139-6.926-20.139-18.514c0-8.904,5.229-18.302,13.214-22.542
		c2.756-1.413,5.936-1.979,9.045-1.979c10.953,0,19.715,6.854,19.715,18.231C93.168,44.73,85.325,56.46,71.333,56.46z
		 M72.394,23.672c-9.045,0-10.458,3.321-10.458,11.023c0,7.419,4.664,11.519,12.083,11.519c7.773,0,8.197-5.229,8.197-11.166
		C82.216,28.831,79.177,23.672,72.394,23.672z"/>
	<path fill="#010101" d="M138.187,47.556c0.142,4.381-2.332,8.621-7.208,8.621c-3.745,0-4.169-5.017-4.169-7.773
		c0-4.168,0.495-8.338,0.495-12.507c0-5.441-0.777-11.73-7.632-11.73c-2.756,0-5.653,1.696-8.268,3.957
		c-0.212,5.159-0.424,10.387-0.424,15.545c0,4.452-0.565,11.589-6.501,11.589c-3.462,0-4.805-2.968-4.805-6.006
		c0-0.425,0-0.849,0.07-1.343c0.354-2.615,0.565-5.229,0.565-7.914c0-5.229-0.354-10.458-0.354-15.758
		c0-4.664,0.919-10.67,6.925-10.67c2.756,0,4.311,1.201,4.664,3.674c3.533-2.402,8.197-4.311,11.377-4.311
		c4.946,0,11.235,1.201,13.144,6.431c0.989,2.897,1.13,6.996,1.201,10.034c0.141,5.865,0.636,11.73,0.848,17.596L138.187,47.556z"/>
	<path fill="#010101" d="M158.771,56.248c-8.268,0-10.883-8.621-10.883-15.475c0-5.653,0.071-11.377,0.143-17.03
		c-0.354,0-0.637,0-0.919,0c-2.332,0-4.028-0.777-4.028-3.392c0-2.261,2.473-5.441,4.947-6.36v-1.837
		c0-3.392,2.402-8.338,5.864-9.257c0.495-0.071,1.06-0.212,1.555-0.212c2.827,0,3.604,2.685,3.604,4.946
		c0,1.484-0.283,2.897-0.283,4.381c0,0.495,0,0.989,0,1.484c0.637,0,1.201,0,1.838,0c1.907,0,3.815-0.424,5.723-0.424
		c2.756,0,5.018,1.06,5.018,4.169c0,4.169-8.197,6.289-11.447,6.289c-0.637,0-1.201,0-1.767,0.071
		c-0.142,1.767-0.282,3.604-0.282,5.37c0,2.191-0.071,4.311-0.071,6.43c0,3.322,0,10.317,4.734,10.317
		c2.332,0,4.239-1.837,6.571-1.837c1.979,0,2.686,1.979,2.686,3.674C171.772,53.775,163.858,56.248,158.771,56.248z"/>
	<path fill="#010101" d="M213.478,43.246c0,4.594-0.354,12.508-6.643,12.508c-2.544,0-3.957-1.06-4.593-2.756
		c-2.332,1.201-4.806,2.049-6.713,2.473c-2.474,0.565-5.229,0.707-7.773,0.707c-7.138,0-13.214-6.289-13.214-13.426
		c0-6.643,7.914-11.024,13.567-13.073c3.533-1.272,9.257-1.625,13.002-1.625c0.282,0,0.636,0,0.919,0
		c-0.707-4.381-3.745-5.371-8.763-5.371c-4.522,0-9.187,2.544-12.083,2.544c-2.191,0-3.322-1.767-3.251-3.745
		c0.142-6.572,11.235-9.116,17.454-9.116c5.794,0,14.062,1.272,16.605,7.349c1.413,3.462,1.626,8.55,1.626,12.295
		S213.478,39.5,213.478,43.246z M194.681,36.816c-2.614,0-8.056,0.988-8.056,4.593c0,3.675,3.604,3.815,6.572,3.815
		c2.896,0,5.794-0.564,8.55-1.483c0.142-2.12,0.212-4.169,0.354-6.289C199.627,37.24,197.366,36.816,194.681,36.816z"/>
	<path fill="#010101" d="M251.946,27.347c-2.968,0-6.148-3.25-11.377-3.25c-6.36,0-9.469,3.109-9.469,9.469
		c0,5.583,4.734,11.729,10.6,11.729c3.392,0,6.501-0.706,9.751-1.554c0.424-0.071,0.848-0.212,1.343-0.212
		c1.908,0,2.897,1.413,2.897,3.25c0,6.501-12.508,9.187-17.312,9.187c-11.519,0-18.161-9.751-18.161-20.492
		c0-11.448,10.953-22.33,22.4-22.33c5.795,0,13.285,1.202,13.285,8.48C255.903,24.096,254.984,27.347,251.946,27.347z"/>
	<path fill="#010101" d="M274.613,56.248c-8.268,0-10.882-8.621-10.882-15.475c0-5.653,0.07-11.377,0.141-17.03
		c-0.353,0-0.636,0-0.918,0c-2.332,0-4.028-0.777-4.028-3.392c0-2.261,2.474-5.441,4.946-6.36v-1.837
		c0-3.392,2.403-8.338,5.865-9.257c0.495-0.071,1.061-0.212,1.555-0.212c2.827,0,3.604,2.685,3.604,4.946
		c0,1.484-0.282,2.897-0.282,4.381c0,0.495,0,0.989,0,1.484c0.636,0,1.201,0,1.837,0c1.908,0,3.816-0.424,5.725-0.424
		c2.756,0,5.017,1.06,5.017,4.169c0,4.169-8.197,6.289-11.447,6.289c-0.636,0-1.201,0-1.767,0.071
		c-0.142,1.767-0.283,3.604-0.283,5.37c0,2.191-0.07,4.311-0.07,6.43c0,3.322,0,10.317,4.734,10.317c2.332,0,4.24-1.837,6.572-1.837
		c1.979,0,2.685,1.979,2.685,3.674C287.615,53.775,279.701,56.248,274.613,56.248z"/>
</g>
</svg>
