<?xml version="1.0" encoding="UTF-8" standalone="no"?>
<!DOCTYPE svg PUBLIC "-//W3C//DTD SVG 1.1//EN" "http://www.w3.org/Graphics/SVG/1.1/DTD/svg11.dtd">
<svg width="100%" height="100%" viewBox="0 0 208 44" version="1.1" xmlns="http://www.w3.org/2000/svg" xmlns:xlink="http://www.w3.org/1999/xlink" xml:space="preserve" style="fill-rule:evenodd;clip-rule:evenodd;stroke-linejoin:round;stroke-miterlimit:1.41421;">
    <g transform="matrix(1,0,0,1,-346.002,-264.477)">
        <g transform="matrix(1.5552,0,0,1.13869,-127.438,-30.7186)">
            <path d="M437.921,275.926C437.921,266.711 432.451,259.241 425.704,259.241C400.302,259.241 342.044,259.241 316.642,259.241C309.895,259.241 304.425,266.711 304.425,275.926C304.425,277.476 304.425,279.046 304.425,280.596C304.425,289.811 309.895,297.282 316.642,297.282C342.044,297.282 400.302,297.282 425.704,297.282C432.451,297.282 437.921,289.811 437.921,280.596C437.921,279.046 437.921,277.476 437.921,275.926Z" style="fill:rgb(82,37,150);"/>
        </g>
        <g transform="matrix(0.931875,0,0,0.931875,398.08,292.023)">
            <path d="M-16.121,-5.689C-16.121,-3.35 -17.962,-2.421 -20.068,-2.421C-20.532,-2.421 -21.08,-2.455 -21.61,-2.554C-21.61,-2.62 -21.61,-2.687 -21.61,-2.737C-21.61,-3.748 -21.66,-4.776 -21.66,-5.788C-21.66,-7.132 -21.76,-8.475 -21.793,-9.818C-21.627,-9.851 -21.461,-9.851 -21.295,-9.851C-18.476,-9.851 -16.121,-8.856 -16.121,-5.689ZM-12.953,-6.335C-12.953,-10.432 -16.535,-12.671 -20.3,-12.671L-20.648,-12.671C-22.141,-12.671 -25.093,-12.621 -25.093,-10.531C-25.093,-10.15 -24.977,-9.752 -24.678,-9.536C-24.695,-9.122 -24.712,-8.707 -24.712,-8.309C-24.712,-7.082 -24.645,-5.855 -24.645,-4.627C-24.645,-3.765 -24.761,-2.919 -24.761,-2.057C-24.761,-1.045 -24.745,0.265 -23.418,0.265C-23.236,0.265 -22.987,0.232 -22.755,0.166C-22.29,0.332 -21.726,0.348 -21.229,0.348C-17.315,0.348 -12.953,-1.94 -12.953,-6.335Z" style="fill:white;fill-rule:nonzero;"/>
            <path d="M-1.426,-5.257C-1.426,-3.068 -2.488,-2.206 -4.66,-2.206C-6.982,-2.206 -8.375,-3.748 -8.375,-6.02C-8.375,-8.027 -7.845,-10.167 -5.423,-10.1L-5.224,-10.084C-3.98,-10.051 -2.654,-9.271 -2.04,-8.143C-1.609,-7.364 -1.426,-6.153 -1.426,-5.257ZM1.658,-6.899C1.658,-8.21 1.327,-9.288 0.531,-10.332C0.216,-10.73 -0.116,-11.145 -0.547,-11.427C-1.891,-12.323 -2.902,-12.538 -4.478,-12.538C-5.871,-12.538 -7.447,-12.207 -8.591,-11.361C-10.117,-10.25 -11.527,-8.011 -11.56,-6.103L-11.56,-5.805C-11.593,-4.412 -11.211,-2.869 -10.299,-1.775C-9.138,-0.348 -7.38,0.464 -5.539,0.464C-4.412,0.464 -2.936,0.199 -1.99,-0.431C0.332,-1.957 1.658,-4.096 1.658,-6.899Z" style="fill:white;fill-rule:nonzero;"/>
            <path d="M19.189,-10.78C19.189,-11.692 18.642,-12.621 17.646,-12.621C17.165,-12.621 16.867,-12.339 16.701,-11.925C16.253,-10.847 16.485,-9.619 16.154,-8.492C15.756,-7.181 15.341,-5.855 14.926,-4.561C14.479,-6.435 13.931,-8.292 13.5,-10.167C13.384,-10.648 13.334,-11.129 13.152,-11.576C12.903,-12.173 12.439,-12.505 11.792,-12.505C10.382,-12.505 9.536,-9.885 9.238,-8.79C9.055,-8.127 8.823,-7.496 8.591,-6.866C8.326,-6.087 8.127,-5.34 7.944,-4.544C7.397,-6.435 6.916,-8.375 6.617,-10.332C6.485,-11.178 6.07,-12.505 5.025,-12.505C4.163,-12.505 3.35,-11.095 3.35,-10.332C3.35,-8.906 3.748,-7.646 4.279,-6.352C4.793,-5.108 5.108,-3.798 5.44,-2.488C5.573,-1.94 5.689,-1.393 5.937,-0.879C6.253,-0.232 6.75,0.332 7.513,0.332C8.409,0.332 9.039,-0.166 9.238,-1.045C9.636,-2.786 10.349,-4.412 10.863,-6.12C10.963,-6.435 11.079,-6.717 11.228,-6.999C11.609,-5.772 12.041,-4.577 12.356,-3.334C12.588,-2.355 12.754,-1.343 13.235,-0.448C13.5,0.033 13.882,0.381 14.462,0.381C15.291,0.381 15.822,-0.033 16.27,-0.697C16.767,-1.443 17.381,-4.296 17.812,-5.423C18.26,-6.617 19.189,-9.553 19.189,-10.78Z" style="fill:white;fill-rule:nonzero;"/>
            <path d="M32.556,-10.83C32.556,-11.444 32.49,-12.555 31.661,-12.555C30.135,-12.555 29.886,-10.465 29.886,-9.354C29.886,-8.11 29.919,-6.866 29.919,-5.622L29.919,-4.627C28.758,-6.468 27.581,-8.292 26.453,-10.167C25.806,-11.228 24.811,-12.422 23.451,-12.422C22.522,-12.422 21.726,-12.041 21.726,-11.012C21.726,-10.697 21.793,-10.382 21.793,-10.067C21.793,-8.011 21.975,-5.937 21.975,-3.881C21.975,-3.068 21.909,-2.272 21.826,-1.476C21.809,-1.377 21.793,-1.277 21.793,-1.161C21.793,-0.498 22.075,0.166 22.838,0.166C23.103,0.166 23.368,0.1 23.6,0C24.231,-0.249 24.645,-2.322 24.645,-2.969C24.645,-4.445 24.629,-5.921 24.645,-7.38C25.557,-6.087 26.42,-4.743 27.249,-3.383C27.846,-2.355 28.427,-1.244 29.14,-0.299C29.455,0.1 29.886,0.531 30.417,0.531C30.516,0.531 30.616,0.514 30.715,0.481C32.075,0.1 32.473,-0.962 32.49,-2.256C32.54,-4.461 32.54,-6.684 32.54,-8.89C32.54,-9.536 32.556,-10.183 32.556,-10.83Z" style="fill:white;fill-rule:nonzero;"/>
            <path d="M43.983,-1.692C43.983,-2.355 43.436,-2.571 42.872,-2.571C41.96,-2.571 41.048,-2.438 40.136,-2.438C39.489,-2.438 38.842,-2.471 38.212,-2.521C38.179,-3.499 38.096,-4.495 38.096,-5.49C38.096,-6.916 38.228,-8.342 38.228,-9.769L38.228,-11.129C38.228,-11.825 38.245,-12.737 37.3,-12.737C36.222,-12.737 35.475,-11.228 35.359,-10.299C35.293,-9.818 35.276,-9.321 35.276,-8.84C35.276,-7.662 35.359,-6.485 35.359,-5.307C35.359,-4.213 35.343,-3.118 35.26,-2.023C35.227,-1.576 35.077,-1.111 35.077,-0.663C35.077,0.332 35.989,0.448 36.769,0.448C38.444,0.448 40.119,0.381 41.778,0.182C42.623,0.083 43.983,-0.73 43.983,-1.692Z" style="fill:white;fill-rule:nonzero;"/>
            <path d="M54.631,-5.257C54.631,-3.068 53.57,-2.206 51.397,-2.206C49.075,-2.206 47.682,-3.748 47.682,-6.02C47.682,-8.027 48.213,-10.167 50.634,-10.1L50.833,-10.084C52.077,-10.051 53.404,-9.271 54.017,-8.143C54.449,-7.364 54.631,-6.153 54.631,-5.257ZM57.716,-6.899C57.716,-8.21 57.384,-9.288 56.588,-10.332C56.273,-10.73 55.941,-11.145 55.51,-11.427C54.167,-12.323 53.155,-12.538 51.579,-12.538C50.186,-12.538 48.611,-12.207 47.466,-11.361C45.94,-10.25 44.531,-8.011 44.498,-6.103L44.498,-5.805C44.464,-4.412 44.846,-2.869 45.758,-1.775C46.919,-0.348 48.677,0.464 50.518,0.464C51.646,0.464 53.122,0.199 54.067,-0.431C56.389,-1.957 57.716,-4.096 57.716,-6.899Z" style="fill:white;fill-rule:nonzero;"/>
            <path d="M65.56,-5.042C64.914,-4.992 64.151,-4.942 63.487,-4.942C63.189,-4.942 62.874,-4.959 62.559,-5.009C62.973,-5.987 63.404,-7.496 63.952,-8.409C64.615,-7.546 65.162,-6.054 65.56,-5.042ZM70.155,-1.31C70.155,-1.974 70.005,-2.637 69.773,-3.267C69.093,-5.125 68.181,-6.899 67.484,-8.773C67.136,-9.702 66.622,-10.614 66.124,-11.477C65.693,-12.173 65.428,-12.522 64.549,-12.522C63.802,-12.522 63.122,-12.074 62.774,-11.51C62.426,-10.963 62.161,-10.399 61.879,-9.835C61.149,-8.292 60.519,-6.667 60.038,-5.092C59.623,-3.715 58.744,-1.907 58.744,-0.498C58.744,0.05 58.893,0.73 59.573,0.73C60.237,0.73 60.983,0.066 61.248,-0.514C61.514,-1.128 61.464,-1.41 61.613,-2.073C61.746,-2.09 61.879,-2.09 62.011,-2.09C63.554,-2.09 65.08,-2.322 66.622,-2.305C66.838,-1.708 67.252,-1.095 67.451,-0.531C67.617,0.017 67.899,0.365 68.479,0.365C69.342,0.365 70.155,-0.448 70.155,-1.31Z" style="fill:white;fill-rule:nonzero;"/>
            <path d="M80.835,-5.689C80.835,-3.35 78.994,-2.421 76.888,-2.421C76.424,-2.421 75.876,-2.455 75.346,-2.554C75.346,-2.62 75.346,-2.687 75.346,-2.737C75.346,-3.748 75.296,-4.776 75.296,-5.788C75.296,-7.132 75.196,-8.475 75.163,-9.818C75.329,-9.851 75.495,-9.851 75.661,-9.851C78.48,-9.851 80.835,-8.856 80.835,-5.689ZM84.003,-6.335C84.003,-10.432 80.421,-12.671 76.656,-12.671L76.308,-12.671C74.815,-12.671 71.863,-12.621 71.863,-10.531C71.863,-10.15 71.979,-9.752 72.277,-9.536C72.261,-9.122 72.244,-8.707 72.244,-8.309C72.244,-7.082 72.311,-5.855 72.311,-4.627C72.311,-3.765 72.194,-2.919 72.194,-2.057C72.194,-1.045 72.211,0.265 73.538,0.265C73.72,0.265 73.969,0.232 74.201,0.166C74.666,0.332 75.23,0.348 75.727,0.348C79.641,0.348 84.003,-1.94 84.003,-6.335Z" style="fill:white;fill-rule:nonzero;"/>
            <path d="M103.524,-10.83C103.524,-11.444 103.457,-12.555 102.628,-12.555C101.102,-12.555 100.853,-10.465 100.853,-9.354C100.853,-8.11 100.887,-6.866 100.887,-5.622L100.887,-4.627C99.726,-6.468 98.548,-8.292 97.42,-10.167C96.773,-11.228 95.778,-12.422 94.418,-12.422C93.49,-12.422 92.694,-12.041 92.694,-11.012C92.694,-10.697 92.76,-10.382 92.76,-10.067C92.76,-8.011 92.942,-5.937 92.942,-3.881C92.942,-3.068 92.876,-2.272 92.793,-1.476C92.776,-1.377 92.76,-1.277 92.76,-1.161C92.76,-0.498 93.042,0.166 93.805,0.166C94.07,0.166 94.335,0.1 94.568,0C95.198,-0.249 95.612,-2.322 95.612,-2.969C95.612,-4.445 95.596,-5.921 95.612,-7.38C96.525,-6.087 97.387,-4.743 98.216,-3.383C98.813,-2.355 99.394,-1.244 100.107,-0.299C100.422,0.1 100.853,0.531 101.384,0.531C101.484,0.531 101.583,0.514 101.683,0.481C103.043,0.1 103.441,-0.962 103.457,-2.256C103.507,-4.461 103.507,-6.684 103.507,-8.89C103.507,-9.536 103.524,-10.183 103.524,-10.83Z" style="fill:white;fill-rule:nonzero;"/>
            <path d="M115.597,-5.257C115.597,-3.068 114.536,-2.206 112.363,-2.206C110.041,-2.206 108.648,-3.748 108.648,-6.02C108.648,-8.027 109.179,-10.167 111.6,-10.1L111.799,-10.084C113.043,-10.051 114.37,-9.271 114.984,-8.143C115.415,-7.364 115.597,-6.153 115.597,-5.257ZM118.682,-6.899C118.682,-8.21 118.351,-9.288 117.554,-10.332C117.239,-10.73 116.908,-11.145 116.476,-11.427C115.133,-12.323 114.121,-12.538 112.546,-12.538C111.153,-12.538 109.577,-12.207 108.433,-11.361C106.907,-10.25 105.497,-8.011 105.464,-6.103L105.464,-5.805C105.431,-4.412 105.812,-2.869 106.724,-1.775C107.885,-0.348 109.643,0.464 111.484,0.464C112.612,0.464 114.088,0.199 115.034,-0.431C117.355,-1.957 118.682,-4.096 118.682,-6.899Z" style="fill:white;fill-rule:nonzero;"/>
            <path d="M136.213,-10.78C136.213,-11.692 135.665,-12.621 134.67,-12.621C134.189,-12.621 133.891,-12.339 133.725,-11.925C133.277,-10.847 133.509,-9.619 133.177,-8.492C132.779,-7.181 132.365,-5.855 131.95,-4.561C131.502,-6.435 130.955,-8.292 130.524,-10.167C130.408,-10.648 130.358,-11.129 130.176,-11.576C129.927,-12.173 129.462,-12.505 128.816,-12.505C127.406,-12.505 126.56,-9.885 126.262,-8.79C126.079,-8.127 125.847,-7.496 125.615,-6.866C125.349,-6.087 125.15,-5.34 124.968,-4.544C124.421,-6.435 123.94,-8.375 123.641,-10.332C123.508,-11.178 123.094,-12.505 122.049,-12.505C121.187,-12.505 120.374,-11.095 120.374,-10.332C120.374,-8.906 120.772,-7.646 121.303,-6.352C121.817,-5.108 122.132,-3.798 122.464,-2.488C122.596,-1.94 122.712,-1.393 122.961,-0.879C123.276,-0.232 123.774,0.332 124.537,0.332C125.432,0.332 126.063,-0.166 126.262,-1.045C126.66,-2.786 127.373,-4.412 127.887,-6.12C127.986,-6.435 128.102,-6.717 128.252,-6.999C128.633,-5.772 129.064,-4.577 129.38,-3.334C129.612,-2.355 129.778,-1.343 130.259,-0.448C130.524,0.033 130.905,0.381 131.486,0.381C132.315,0.381 132.846,-0.033 133.294,-0.697C133.791,-1.443 134.405,-4.296 134.836,-5.423C135.284,-6.617 136.213,-9.553 136.213,-10.78Z" style="fill:white;fill-rule:nonzero;"/>
        </g>
    </g>
</svg>
