<?xml version="1.0" encoding="UTF-8" standalone="no"?>
<svg width="381px" height="55px" viewBox="0 0 381 55" version="1.1" xmlns="http://www.w3.org/2000/svg" xmlns:xlink="http://www.w3.org/1999/xlink" xmlns:sketch="http://www.bohemiancoding.com/sketch/ns">
    <!-- Generator: Sketch 3.2.2 (9983) - http://www.bohemiancoding.com/sketch -->
    <title>Downloads</title>
    <desc>Created with Sketch.</desc>
    <defs></defs>
    <g id="Page-1" stroke="none" stroke-width="1" fill="none" fill-rule="evenodd" sketch:type="MSPage">
        <path d="M35.04,30.048 C35.04,39.072 27.936,42.656 19.808,42.656 C18.016,42.656 15.904,42.528 13.856,42.144 L13.856,41.44 C13.856,37.536 13.664,33.568 13.664,29.664 C13.664,24.48 13.28,19.296 13.152,14.112 C13.792,13.984 14.432,13.984 15.072,13.984 C25.952,13.984 35.04,17.824 35.04,30.048 L35.04,30.048 Z M47.264,27.552 C47.264,11.744 33.44,3.104 18.912,3.104 L17.568,3.104 C11.808,3.104 0.416,3.296 0.416,11.36 C0.416,12.832 0.864,14.368 2.016,15.2 C1.952,16.8 1.888,18.4 1.888,19.936 C1.888,24.672 2.144,29.408 2.144,34.144 C2.144,37.472 1.696,40.736 1.696,44.064 C1.696,47.968 1.76,53.024 6.88,53.024 C7.584,53.024 8.544,52.896 9.44,52.64 C11.232,53.28 13.408,53.344 15.328,53.344 C30.432,53.344 47.264,44.512 47.264,27.552 L47.264,27.552 Z M80.864,34.656 C80.864,40.032 80.48,44.768 73.44,44.768 C66.72,44.768 62.496,41.056 62.496,34.336 C62.496,27.36 63.776,24.352 71.968,24.352 C78.112,24.352 80.864,29.024 80.864,34.656 L80.864,34.656 Z M90.784,31.584 C90.784,21.28 82.848,15.072 72.928,15.072 C70.112,15.072 67.232,15.584 64.736,16.864 C57.504,20.704 52.768,29.216 52.768,37.28 C52.768,47.776 61.024,54.048 71.008,54.048 C83.68,54.048 90.784,43.424 90.784,31.584 L90.784,31.584 Z M146.592,20.384 C146.592,17.504 145.504,13.92 142.048,13.92 C138.784,13.92 138.016,16.416 137.824,19.104 C137.312,25.76 135.84,30.368 133.92,36.64 C132.576,32.864 127.2,16.224 124.128,14.816 C123.424,14.496 122.72,14.304 121.952,14.304 C120.032,14.304 117.92,15.584 117.28,17.44 C116.064,20.96 115.104,24.544 113.824,28.064 C112.672,31.2 111.648,34.336 110.368,37.408 C108.832,32.224 107.552,26.912 106.784,21.6 C106.592,20 106.4,18.016 105.696,16.608 C105.12,15.328 104.096,14.432 102.624,14.432 C98.72,14.432 96.096,19.872 96.096,23.2 C96.096,24.48 96.608,26.144 96.992,27.36 C97.504,28.768 98.016,30.176 98.528,31.52 C100,35.552 101.088,39.648 102.368,43.68 C102.944,45.664 103.2,47.712 103.904,49.632 C104.736,52.064 106.336,54.112 109.152,54.112 C112.288,54.112 113.824,50.208 114.464,47.648 C115.872,42.016 118.752,36.64 120.992,31.328 C123.104,36.064 125.472,40.8 127.072,45.792 C127.52,47.2 127.968,48.544 128.672,49.888 C129.44,51.488 130.784,53.28 132.768,53.28 C137.888,53.28 139.296,47.968 140.064,43.936 C141.472,36.576 146.592,27.936 146.592,20.384 L146.592,20.384 Z M190.304,45.472 C190.112,40.16 189.664,34.848 189.536,29.536 C189.472,26.784 189.344,23.072 188.448,20.448 C186.72,15.712 181.024,14.624 176.544,14.624 C173.664,14.624 169.44,16.352 166.24,18.528 C165.92,16.288 164.512,15.2 162.016,15.2 C156.576,15.2 155.744,20.64 155.744,24.864 C155.744,29.664 156.064,34.4 156.064,39.136 C156.064,41.568 155.872,43.936 155.552,46.304 C155.488,46.752 155.488,47.136 155.488,47.52 C155.488,50.272 156.704,52.96 159.84,52.96 C165.216,52.96 165.728,46.496 165.728,42.464 C165.728,37.792 165.92,33.056 166.112,28.384 C168.48,26.336 171.104,24.8 173.6,24.8 C179.808,24.8 180.512,30.496 180.512,35.424 C180.512,39.2 180.064,42.976 180.064,46.752 C180.064,49.248 180.448,53.792 183.84,53.792 C188.256,53.792 190.496,49.952 190.368,45.984 L190.304,45.472 Z M210.784,14.624 C210.784,11.808 210.848,8.864 210.464,6.048 C210.208,4.32 208.8,2.848 206.752,2.848 C202.784,2.848 201.248,7.584 201.248,10.464 C201.248,16.032 201.696,21.536 201.696,27.04 C201.696,33.632 201.056,40.288 201.056,46.88 C201.056,49.376 201.056,52.768 204.64,52.768 C209.504,52.768 210.592,46.624 210.592,43.296 L210.592,26.976 C210.592,22.88 210.784,18.72 210.784,14.624 L210.784,14.624 Z M246.944,34.656 C246.944,40.032 246.56,44.768 239.52,44.768 C232.8,44.768 228.576,41.056 228.576,34.336 C228.576,27.36 229.856,24.352 238.048,24.352 C244.192,24.352 246.944,29.024 246.944,34.656 L246.944,34.656 Z M256.864,31.584 C256.864,21.28 248.928,15.072 239.008,15.072 C236.192,15.072 233.312,15.584 230.816,16.864 C223.584,20.704 218.848,29.216 218.848,37.28 C218.848,47.776 227.104,54.048 237.088,54.048 C249.76,54.048 256.864,43.424 256.864,31.584 L256.864,31.584 Z M286.432,36.832 C286.304,38.752 286.24,40.608 286.112,42.528 C283.616,43.36 280.992,43.872 278.368,43.872 C275.68,43.872 272.416,43.744 272.416,40.416 C272.416,37.152 277.344,36.256 279.712,36.256 C282.144,36.256 284.192,36.64 286.432,36.832 L286.432,36.832 Z M296.864,31.904 C296.864,28.512 296.672,23.904 295.392,20.768 C293.088,15.264 285.6,14.112 280.352,14.112 C274.72,14.112 264.672,16.416 264.544,22.368 C264.48,24.16 265.504,25.76 267.488,25.76 C270.112,25.76 274.336,23.456 278.432,23.456 C282.976,23.456 285.728,24.352 286.368,28.32 L285.536,28.32 C282.144,28.32 276.96,28.64 273.76,29.792 C268.64,31.648 261.472,35.616 261.472,41.632 C261.472,48.096 266.976,53.792 273.44,53.792 C275.744,53.792 278.24,53.664 280.48,53.152 C282.208,52.768 284.448,52 286.56,50.912 C287.136,52.448 288.416,53.408 290.72,53.408 C296.416,53.408 296.736,46.24 296.736,42.08 C296.736,38.688 296.864,35.296 296.864,31.904 L296.864,31.904 Z M329.44,40.672 C327.52,41.888 325.216,43.104 322.784,43.104 C316.576,43.104 314.528,37.344 314.528,32.032 C314.528,26.72 316.96,24.16 322.272,24.16 C324.704,24.16 327.264,25.056 329.248,25.76 C329.312,30.624 329.504,35.552 329.504,40.48 L329.44,40.672 Z M340.192,42.336 C340.192,38.496 339.616,34.656 339.616,30.816 C339.616,22.88 339.424,14.944 339.232,7.072 C339.104,3.872 338.784,0.544 334.816,0.544 C329.76,0.544 328.864,9.76 328.864,13.408 L328.864,14.88 C326.368,14.432 323.872,14.176 322.592,14.176 C313.184,14.176 303.712,24.736 303.712,33.952 C303.712,37.856 304.224,42.464 306.016,45.984 C308.448,50.656 313.568,53.152 318.752,53.152 C321.248,53.152 325.856,52.064 329.568,50.208 C329.952,51.616 330.912,52.768 332.768,52.768 C338.08,52.768 340.192,46.816 340.192,42.336 L340.192,42.336 Z M380.576,40.48 C380.576,25.76 358.88,31.776 358.88,26.592 C358.88,24.48 361.952,23.776 363.424,23.776 C365.536,23.776 368.544,23.712 370.592,24.224 C371.872,24.544 374.432,26.016 375.392,26.016 C377.696,26.016 378.464,23.712 378.464,21.92 C378.464,15.392 371.872,14.496 366.752,14.496 C363.616,14.496 358.688,15.776 355.872,17.184 C352.096,19.04 348.832,24.672 348.832,28.896 C348.832,36 355.744,37.28 361.056,38.752 C362.464,39.2 371.04,40.16 371.04,41.376 C371.04,44.384 364.448,44.832 362.336,44.832 C356.32,44.832 355.552,41.952 352.224,41.952 C349.728,41.952 348.512,43.168 348.512,45.664 C348.512,51.296 354.592,53.728 359.776,53.792 C362.336,53.792 364.96,53.92 367.52,53.408 C373.472,52.192 380.576,47.136 380.576,40.48 L380.576,40.48 Z" id="Downloads" fill="#000000" sketch:type="MSShapeGroup"></path>
    </g>
</svg>