<?xml version="1.0" encoding="UTF-8" standalone="no"?>
<svg width="192px" height="52px" viewBox="0 0 192 52" version="1.1" xmlns="http://www.w3.org/2000/svg" xmlns:xlink="http://www.w3.org/1999/xlink" xmlns:sketch="http://www.bohemiancoding.com/sketch/ns">
    <!-- Generator: Sketch 3.2.2 (9983) - http://www.bohemiancoding.com/sketch -->
    <title>Learn</title>
    <desc>Created with Sketch.</desc>
    <defs></defs>
    <g id="Page-1" stroke="none" stroke-width="1" fill="none" fill-rule="evenodd" sketch:type="MSPage">
        <path d="M34.976,43.472 C34.976,40.912 32.864,40.08 30.688,40.08 C27.168,40.08 23.648,40.592 20.128,40.592 C17.632,40.592 15.136,40.464 12.704,40.272 C12.576,36.496 12.256,32.656 12.256,28.816 C12.256,23.312 12.768,17.808 12.768,12.304 L12.768,7.056 C12.768,4.368 12.832,0.848 9.184,0.848 C5.024,0.848 2.144,6.672 1.696,10.256 C1.44,12.112 1.376,14.032 1.376,15.888 C1.376,20.432 1.696,24.976 1.696,29.52 C1.696,33.744 1.632,37.968 1.312,42.192 C1.184,43.92 0.608,45.712 0.608,47.44 C0.608,51.28 4.128,51.728 7.136,51.728 C13.6,51.728 20.064,51.472 26.464,50.704 C29.728,50.32 34.976,47.184 34.976,43.472 L34.976,43.472 Z M66.4,26.448 C60.768,26.768 55.2,26.896 49.632,26.896 C51.552,22.8 54.752,21.2 58.4,21.2 C61.28,21.2 65.568,22.16 66.4,26.448 L66.4,26.448 Z M74.912,28.688 C74.912,21.52 71.84,14.16 64.032,12.688 C62.048,12.304 60,12.304 57.952,12.304 C53.024,12.304 46.24,15.76 43.424,19.792 C40.416,23.952 37.92,29.712 37.92,34.832 C37.92,44.496 47.904,51.856 56.992,51.856 C62.88,51.856 72.16,50.384 74.336,43.984 C74.464,43.6 74.528,43.152 74.528,42.704 C74.528,41.36 73.888,39.12 72.224,39.12 C68.64,39.12 65.952,41.552 62.368,41.872 C61.216,42 60.064,42.064 58.912,42.064 C57.312,42.064 54.688,41.936 53.28,41.296 C51.04,40.208 48.608,38.032 47.968,35.536 C53.536,35.6 59.04,35.664 64.608,35.664 C69.152,35.664 74.912,34.384 74.912,28.688 L74.912,28.688 Z M104.544,34.832 C104.416,36.752 104.352,38.608 104.224,40.528 C101.728,41.36 99.104,41.872 96.48,41.872 C93.792,41.872 90.528,41.744 90.528,38.416 C90.528,35.152 95.456,34.256 97.824,34.256 C100.256,34.256 102.304,34.64 104.544,34.832 L104.544,34.832 Z M114.976,29.904 C114.976,26.512 114.784,21.904 113.504,18.768 C111.2,13.264 103.712,12.112 98.464,12.112 C92.832,12.112 82.784,14.416 82.656,20.368 C82.592,22.16 83.616,23.76 85.6,23.76 C88.224,23.76 92.448,21.456 96.544,21.456 C101.088,21.456 103.84,22.352 104.48,26.32 L103.648,26.32 C100.256,26.32 95.072,26.64 91.872,27.792 C86.752,29.648 79.584,33.616 79.584,39.632 C79.584,46.096 85.088,51.792 91.552,51.792 C93.856,51.792 96.352,51.664 98.592,51.152 C100.32,50.768 102.56,50 104.672,48.912 C105.248,50.448 106.528,51.408 108.832,51.408 C114.528,51.408 114.848,44.24 114.848,40.08 C114.848,36.688 114.976,33.296 114.976,29.904 L114.976,29.904 Z M150.752,19.408 C150.752,15.376 148.192,12.944 144.16,12.944 C139.872,12.944 136.864,14.352 134.24,16.464 C134.176,14.48 133.28,12.88 130.976,12.88 C124.64,12.88 124.512,20.304 124.512,24.912 C124.512,29.712 124.448,34.512 124.448,39.248 C124.448,41.68 124.256,44.112 124.256,46.608 C124.256,49.296 125.728,50.96 128.48,50.96 C133.344,50.96 133.984,45.968 133.984,42.256 L133.984,26.448 C136.224,24.72 138.848,23.248 141.408,23.248 C143.52,23.248 145.184,24.72 147.168,24.72 C149.856,24.72 150.752,21.584 150.752,19.408 L150.752,19.408 Z M191.84,43.472 C191.648,38.16 191.2,32.848 191.072,27.536 C191.008,24.784 190.88,21.072 189.984,18.448 C188.256,13.712 182.56,12.624 178.08,12.624 C175.2,12.624 170.976,14.352 167.776,16.528 C167.456,14.288 166.048,13.2 163.552,13.2 C158.112,13.2 157.28,18.64 157.28,22.864 C157.28,27.664 157.6,32.4 157.6,37.136 C157.6,39.568 157.408,41.936 157.088,44.304 C157.024,44.752 157.024,45.136 157.024,45.52 C157.024,48.272 158.24,50.96 161.376,50.96 C166.752,50.96 167.264,44.496 167.264,40.464 C167.264,35.792 167.456,31.056 167.648,26.384 C170.016,24.336 172.64,22.8 175.136,22.8 C181.344,22.8 182.048,28.496 182.048,33.424 C182.048,37.2 181.6,40.976 181.6,44.752 C181.6,47.248 181.984,51.792 185.376,51.792 C189.792,51.792 192.032,47.952 191.904,43.984 L191.84,43.472 Z" id="Learn" fill="#000000" sketch:type="MSShapeGroup"></path>
    </g>
</svg>