<?xml version="1.0" encoding="UTF-8" standalone="no"?>
<!DOCTYPE svg PUBLIC "-//W3C//DTD SVG 1.1//EN" "http://www.w3.org/Graphics/SVG/1.1/DTD/svg11.dtd">
<svg width="100%" height="100%" viewBox="0 0 208 44" version="1.1" xmlns="http://www.w3.org/2000/svg" xmlns:xlink="http://www.w3.org/1999/xlink" xml:space="preserve" style="fill-rule:evenodd;clip-rule:evenodd;stroke-linejoin:round;stroke-miterlimit:1.41421;">
    <g transform="matrix(1,0,0,1,-615.034,-264.477)">
        <g transform="matrix(1.5552,0,0,1.13869,141.593,-30.7186)">
            <path d="M437.921,275.926C437.921,266.711 432.451,259.241 425.704,259.241C400.302,259.241 342.044,259.241 316.642,259.241C309.895,259.241 304.425,266.711 304.425,275.926C304.425,277.476 304.425,279.046 304.425,280.596C304.425,289.811 309.895,297.282 316.642,297.282C342.044,297.282 400.302,297.282 425.704,297.282C432.451,297.282 437.921,289.811 437.921,280.596C437.921,279.046 437.921,277.476 437.921,275.926Z" style="fill:rgb(82,37,150);"/>
        </g>
        <g transform="matrix(1.57377,0,0,1.57377,62.9346,-4.70457)">
            <path d="M375.115,186.17C375.115,184.31 372.331,184.379 371.13,183.907C370.756,183.759 370.628,183.641 370.628,183.218C370.628,182.756 371.376,182.647 371.701,182.647C372.163,182.647 372.606,182.687 373.039,182.864C373.374,183.002 373.689,183.238 374.063,183.238C374.515,183.238 374.742,182.972 374.742,182.539C374.742,182.067 374.574,181.585 374.122,181.368C373.659,181.142 372.96,181.024 372.439,181.024C371.671,181.024 371.209,181.122 370.51,181.417C369.792,181.732 368.867,182.903 368.867,183.7C368.867,184.812 369.989,185.462 370.933,185.619C371.317,185.678 373.265,185.963 373.265,186.485C373.265,187.282 372.498,187.331 371.868,187.351L371.799,187.361C371.484,187.371 370.835,187.233 370.569,187.066C370.225,186.849 369.802,186.623 369.388,186.623C369.005,186.623 368.768,186.839 368.768,187.223C368.768,188.483 370.471,188.896 371.465,188.896C372.154,188.896 373.138,188.64 373.718,188.276C374.417,187.853 375.115,187.026 375.115,186.17Z" style="fill:white;fill-rule:nonzero;"/>
            <path d="M382.968,185.166C382.968,184.478 382.919,183.789 382.919,183.1C382.919,182.844 382.948,182.598 382.948,182.342C382.948,181.85 382.83,181.26 382.21,181.26C381.403,181.26 381.138,182.165 381.138,182.834C381.138,183.72 381.236,184.615 381.236,185.511C381.236,186.79 381.285,187.282 379.858,187.282C378.373,187.282 378.156,186.268 378.156,185.009C378.156,184.212 378.254,183.425 378.333,182.628C378.333,182.569 378.333,182.51 378.333,182.45C378.333,181.89 378.077,181.339 377.438,181.339C376.847,181.339 376.405,182.145 376.405,182.677C376.405,183.326 376.385,183.986 376.385,184.645C376.385,185.422 376.434,186.2 376.562,186.957C376.641,187.42 377.103,188.109 377.487,188.374C378.038,188.768 378.825,188.856 379.494,188.856C379.563,188.856 379.642,188.856 379.711,188.856C381.098,188.797 382.742,187.745 382.919,186.268C382.958,185.904 382.968,185.53 382.968,185.166Z" style="fill:white;fill-rule:nonzero;"/>
            <path d="M388.193,183.671C388.193,184.684 387.406,184.615 386.609,184.615C386.412,184.615 386.215,184.605 386.009,184.596C386.038,183.976 386.077,183.346 386.097,182.726C386.215,182.716 386.343,182.706 386.471,182.706C387.15,182.706 388.193,182.756 388.193,183.671ZM389.895,183.129C389.895,182.421 389.492,181.899 388.921,181.525C388.36,181.152 387.337,181.073 386.678,181.073C386.235,181.073 385.782,181.102 385.339,181.191C384.444,181.27 383.844,182.313 384.395,182.844C384.395,183.621 384.434,184.497 384.434,185.275C384.434,186.042 384.336,186.81 384.336,187.577C384.336,188.089 384.434,188.837 385.103,188.837C385.566,188.837 385.95,188.099 386.009,187.695C386.038,187.499 386.048,187.302 386.048,187.095C386.048,186.8 386.028,186.505 386.009,186.209C386.097,186.209 386.176,186.209 386.235,186.209C386.628,186.209 387.052,186.18 387.435,186.091C387.868,185.983 388.813,185.403 389.128,185.068C389.551,184.615 389.895,183.759 389.895,183.129Z" style="fill:white;fill-rule:nonzero;"/>
            <path d="M394.717,183.671C394.717,184.684 393.93,184.615 393.133,184.615C392.936,184.615 392.739,184.605 392.533,184.596C392.562,183.976 392.602,183.346 392.621,182.726C392.739,182.716 392.867,182.706 392.995,182.706C393.674,182.706 394.717,182.756 394.717,183.671ZM396.42,183.129C396.42,182.421 396.016,181.899 395.445,181.525C394.884,181.152 393.861,181.073 393.202,181.073C392.759,181.073 392.306,181.102 391.863,181.191C390.968,181.27 390.368,182.313 390.919,182.844C390.919,183.621 390.958,184.497 390.958,185.275C390.958,186.042 390.86,186.81 390.86,187.577C390.86,188.089 390.958,188.837 391.627,188.837C392.09,188.837 392.474,188.099 392.533,187.695C392.562,187.499 392.572,187.302 392.572,187.095C392.572,186.8 392.552,186.505 392.533,186.209C392.621,186.209 392.7,186.209 392.759,186.209C393.153,186.209 393.576,186.18 393.959,186.091C394.392,185.983 395.337,185.403 395.652,185.068C396.075,184.615 396.42,183.759 396.42,183.129Z" style="fill:white;fill-rule:nonzero;"/>
            <path d="M402.973,185.442C402.973,186.741 402.343,187.253 401.054,187.253C399.677,187.253 398.85,186.337 398.85,184.989C398.85,183.799 399.165,182.529 400.602,182.569L400.72,182.578C401.458,182.598 402.245,183.061 402.609,183.73C402.865,184.192 402.973,184.911 402.973,185.442ZM404.803,184.468C404.803,183.69 404.607,183.051 404.134,182.431C403.947,182.195 403.75,181.949 403.495,181.781C402.698,181.25 402.097,181.122 401.163,181.122C400.336,181.122 399.401,181.319 398.722,181.821C397.817,182.48 396.98,183.808 396.961,184.94L396.961,185.117C396.941,185.944 397.167,186.859 397.709,187.508C398.397,188.355 399.44,188.837 400.533,188.837C401.202,188.837 402.078,188.679 402.639,188.305C404.016,187.4 404.803,186.131 404.803,184.468Z" style="fill:white;fill-rule:nonzero;"/>
            <path d="M409.91,183.71C409.91,184.094 409.792,184.222 409.438,184.34C408.976,184.487 408.297,184.556 407.706,184.615C407.726,184.025 407.736,183.434 407.736,182.844C407.736,182.834 407.736,182.815 407.736,182.795C407.952,182.775 408.169,182.756 408.395,182.756C409.035,182.756 409.91,182.874 409.91,183.71ZM412.557,188.069C412.557,187.833 412.43,187.646 412.252,187.499C412.115,187.39 411.967,187.312 411.849,187.193C411.505,186.829 411.17,186.436 410.835,186.062C410.648,185.836 410.462,185.609 410.284,185.373C411.101,184.911 411.692,184.232 411.692,183.267C411.692,181.998 410.265,181.191 409.123,181.181L408.808,181.181C407.844,181.181 405.837,181.112 405.837,182.51C405.837,182.677 405.896,182.844 406.014,182.952C405.974,183.553 405.955,184.556 405.955,184.684C405.955,185.393 405.974,186.091 405.974,186.8C405.974,187.154 405.935,187.508 405.935,187.863C405.935,188.423 406.161,188.837 406.771,188.837C407.195,188.837 407.755,188.217 407.746,187.804L407.746,187.774C407.726,187.361 407.677,186.957 407.677,186.534C407.677,186.426 407.677,186.308 407.677,186.2C407.893,186.16 408.129,186.121 408.356,186.072C408.976,186.701 409.605,187.331 410.166,188C410.54,188.463 411.013,188.965 411.652,188.965C412.065,188.965 412.557,188.492 412.557,188.069Z" style="fill:white;fill-rule:nonzero;"/>
            <path d="M419.111,181.831C419.111,181.132 418.166,181.083 417.665,181.083C417.389,181.083 417.104,181.102 416.818,181.102C415.697,181.102 414.132,181.004 413.079,181.407C412.735,181.545 412.331,181.958 412.331,182.342C412.331,182.775 412.685,182.883 413.049,182.883C413.394,182.883 413.738,182.815 414.073,182.795C414.329,182.785 414.585,182.775 414.85,182.756C414.831,182.972 414.831,183.188 414.831,183.395C414.831,183.818 414.85,184.232 414.85,184.645C414.85,185.54 414.791,186.436 414.791,187.331C414.791,187.882 414.899,188.778 415.628,188.778C416.208,188.778 416.641,188.059 416.641,187.528C416.641,186.298 416.553,185.048 416.553,183.808C416.553,183.454 416.592,183.11 416.602,182.756C417.064,182.756 417.527,182.765 417.989,182.765C418.363,182.765 419.111,182.224 419.111,181.831Z" style="fill:white;fill-rule:nonzero;"/>
            <path d="M430.181,185.166C430.181,184.478 430.132,183.789 430.132,183.1C430.132,182.844 430.162,182.598 430.162,182.342C430.162,181.85 430.044,181.26 429.424,181.26C428.617,181.26 428.351,182.165 428.351,182.834C428.351,183.72 428.449,184.615 428.449,185.511C428.449,186.79 428.499,187.282 427.072,187.282C425.586,187.282 425.369,186.268 425.369,185.009C425.369,184.212 425.468,183.425 425.547,182.628C425.547,182.569 425.547,182.51 425.547,182.45C425.547,181.89 425.291,181.339 424.651,181.339C424.061,181.339 423.618,182.145 423.618,182.677C423.618,183.326 423.598,183.986 423.598,184.645C423.598,185.422 423.647,186.2 423.775,186.957C423.854,187.42 424.317,188.109 424.7,188.374C425.251,188.768 426.039,188.856 426.708,188.856C426.777,188.856 426.855,188.856 426.924,188.856C428.312,188.797 429.955,187.745 430.132,186.268C430.171,185.904 430.181,185.53 430.181,185.166Z" style="fill:white;fill-rule:nonzero;"/>
            <path d="M437.65,186.17C437.65,184.31 434.865,184.379 433.665,183.907C433.291,183.759 433.163,183.641 433.163,183.218C433.163,182.756 433.911,182.647 434.235,182.647C434.698,182.647 435.141,182.687 435.574,182.864C435.908,183.002 436.223,183.238 436.597,183.238C437.05,183.238 437.276,182.972 437.276,182.539C437.276,182.067 437.109,181.585 436.656,181.368C436.194,181.142 435.495,181.024 434.974,181.024C434.206,181.024 433.743,181.122 433.045,181.417C432.326,181.732 431.402,182.903 431.402,183.7C431.402,184.812 432.523,185.462 433.468,185.619C433.852,185.678 435.8,185.963 435.8,186.485C435.8,187.282 435.033,187.331 434.403,187.351L434.334,187.361C434.019,187.371 433.37,187.233 433.104,187.066C432.759,186.849 432.336,186.623 431.923,186.623C431.539,186.623 431.303,186.839 431.303,187.223C431.303,188.483 433.005,188.896 433.999,188.896C434.688,188.896 435.672,188.64 436.253,188.276C436.951,187.853 437.65,187.026 437.65,186.17Z" style="fill:white;fill-rule:nonzero;"/>
        </g>
        <g transform="matrix(0.127075,0,0,0.127075,734.13,261.907)">
            <g transform="matrix(1,0,0,1,0,-1.32932)">
                <rect x="325.191" y="111.957" width="28.643" height="160.062" style="fill:white;"/>
            </g>
            <g transform="matrix(1,0,0,1,-3,-3.2926)">
                <circle cx="432.627" cy="174.078" r="59.75" style="fill:white;"/>
            </g>
        </g>
    </g>
</svg>
