<?xml version="1.0" encoding="UTF-8" standalone="no"?>
<svg width="277px" height="53px" viewBox="0 0 277 53" version="1.1" xmlns="http://www.w3.org/2000/svg" xmlns:xlink="http://www.w3.org/1999/xlink" xmlns:sketch="http://www.bohemiancoding.com/sketch/ns">
    <!-- Generator: Sketch 3.2.2 (9983) - http://www.bohemiancoding.com/sketch -->
    <title>Themes</title>
    <desc>Created with Sketch.</desc>
    <defs></defs>
    <g id="Page-1" stroke="none" stroke-width="1" fill="none" fill-rule="evenodd" sketch:type="MSPage">
        <path d="M44.904,7.224 C44.904,2.68 38.76,2.36 35.496,2.36 C33.704,2.36 31.848,2.488 29.992,2.488 C22.696,2.488 12.52,1.848 5.672,4.472 C3.432,5.368 0.808,8.056 0.808,10.552 C0.808,13.368 3.112,14.072 5.48,14.072 C7.72,14.072 9.96,13.624 12.136,13.496 C13.8,13.432 15.464,13.368 17.192,13.24 C17.064,14.648 17.064,16.056 17.064,17.4 C17.064,20.152 17.192,22.84 17.192,25.528 C17.192,31.352 16.808,37.176 16.808,43 C16.808,46.584 17.512,52.408 22.248,52.408 C26.024,52.408 28.84,47.736 28.84,44.28 C28.84,36.28 28.264,28.152 28.264,20.088 C28.264,17.784 28.52,15.544 28.584,13.24 C31.592,13.24 34.6,13.304 37.608,13.304 C40.04,13.304 44.904,9.784 44.904,7.224 L44.904,7.224 Z M84.84,45.752 C84.84,40.952 84.392,36.152 84.392,31.352 C84.392,24.376 84.776,17.272 77.032,14.328 C75.176,13.624 73.192,13.304 71.208,13.304 C67.304,13.304 63.528,14.712 60.328,16.952 C60.52,12.984 60.648,8.952 60.648,4.984 C60.648,2.936 60.264,0.888 57.768,0.888 C53.288,0.888 50.088,6.328 50.088,10.36 C50.088,14.072 50.344,17.784 50.344,21.496 C50.344,27.512 50.344,33.592 49.96,39.608 C49.832,41.464 49.576,43.384 49.576,45.24 C49.576,47.8 50.024,52.28 53.48,52.28 C57.96,52.28 60.456,47.672 60.456,43.64 C60.456,40.568 59.752,37.432 59.752,34.232 C59.752,31.928 59.816,29.56 59.88,27.192 C61.992,25.464 64.744,23.928 66.984,23.928 C73.832,23.928 74.536,25.656 74.536,32.056 C74.536,37.176 74.152,42.232 74.152,47.352 C74.152,50.552 74.984,52.92 78.696,52.92 C81.96,52.92 84.84,48.824 84.84,45.752 L84.84,45.752 Z M120.104,27.448 C114.472,27.768 108.904,27.896 103.336,27.896 C105.256,23.8 108.456,22.2 112.104,22.2 C114.984,22.2 119.272,23.16 120.104,27.448 L120.104,27.448 Z M128.616,29.688 C128.616,22.52 125.544,15.16 117.736,13.688 C115.752,13.304 113.704,13.304 111.656,13.304 C106.728,13.304 99.944,16.76 97.128,20.792 C94.12,24.952 91.624,30.712 91.624,35.832 C91.624,45.496 101.608,52.856 110.696,52.856 C116.584,52.856 125.864,51.384 128.04,44.984 C128.168,44.6 128.232,44.152 128.232,43.704 C128.232,42.36 127.592,40.12 125.928,40.12 C122.344,40.12 119.656,42.552 116.072,42.872 C114.92,43 113.768,43.064 112.616,43.064 C111.016,43.064 108.392,42.936 106.984,42.296 C104.744,41.208 102.312,39.032 101.672,36.536 C107.24,36.6 112.744,36.664 118.312,36.664 C122.856,36.664 128.616,35.384 128.616,29.688 L128.616,29.688 Z M194.408,43.448 C194.408,39.544 193.704,35.64 193.704,31.672 C193.704,28.152 194.152,24.504 193.192,20.984 C191.976,16.696 188.072,13.624 183.592,13.752 L183.08,13.752 C178.088,13.88 173.608,15.48 169.384,18.104 C169.128,18.232 168.872,18.424 168.616,18.616 C166.632,15.736 163.56,13.816 159.08,13.816 C155.176,13.816 150.312,15.288 146.408,17.72 C145.96,15.736 144.68,14.328 142.056,14.328 C137.512,14.328 136.232,24.12 136.232,27.512 C136.232,31.352 135.912,46.136 136.552,48.824 C137.064,51 138.6,52.28 140.84,52.28 C145.128,52.28 146.728,45.944 146.6,42.616 L146.536,41.784 C146.344,37.048 146.152,32.248 146.152,27.448 C148.776,25.656 151.656,24.248 154.6,24.248 C161.128,24.248 160.552,29.752 160.552,34.552 C160.552,38.84 160.296,43.128 160.296,47.352 C160.296,50.616 161.128,52.472 164.712,52.472 C169.192,52.472 170.728,43.32 170.728,39.992 C170.728,36.28 171.304,32.632 171.304,28.92 C171.304,28.152 171.304,27.384 171.24,26.68 C173.352,25.336 175.656,24.376 178.6,24.376 C182.952,24.376 183.912,26.744 183.912,30.648 C183.912,33.656 184.04,36.664 184.04,39.672 C184.04,42.488 183.592,45.304 183.592,48.056 C183.592,51 185.256,52.28 188.136,52.28 C192.68,52.28 194.408,47.288 194.408,43.448 L194.408,43.448 Z M230.568,27.448 C224.936,27.768 219.368,27.896 213.8,27.896 C215.72,23.8 218.92,22.2 222.568,22.2 C225.448,22.2 229.736,23.16 230.568,27.448 L230.568,27.448 Z M239.08,29.688 C239.08,22.52 236.008,15.16 228.2,13.688 C226.216,13.304 224.168,13.304 222.12,13.304 C217.192,13.304 210.408,16.76 207.592,20.792 C204.584,24.952 202.088,30.712 202.088,35.832 C202.088,45.496 212.072,52.856 221.16,52.856 C227.048,52.856 236.328,51.384 238.504,44.984 C238.632,44.6 238.696,44.152 238.696,43.704 C238.696,42.36 238.056,40.12 236.392,40.12 C232.808,40.12 230.12,42.552 226.536,42.872 C225.384,43 224.232,43.064 223.08,43.064 C221.48,43.064 218.856,42.936 217.448,42.296 C215.208,41.208 212.776,39.032 212.136,36.536 C217.704,36.6 223.208,36.664 228.776,36.664 C233.32,36.664 239.08,35.384 239.08,29.688 L239.08,29.688 Z M276.712,39.48 C276.712,24.76 255.016,30.776 255.016,25.592 C255.016,23.48 258.088,22.776 259.56,22.776 C261.672,22.776 264.68,22.712 266.728,23.224 C268.008,23.544 270.568,25.016 271.528,25.016 C273.832,25.016 274.6,22.712 274.6,20.92 C274.6,14.392 268.008,13.496 262.888,13.496 C259.752,13.496 254.824,14.776 252.008,16.184 C248.232,18.04 244.968,23.672 244.968,27.896 C244.968,35 251.88,36.28 257.192,37.752 C258.6,38.2 267.176,39.16 267.176,40.376 C267.176,43.384 260.584,43.832 258.472,43.832 C252.456,43.832 251.688,40.952 248.36,40.952 C245.864,40.952 244.648,42.168 244.648,44.664 C244.648,50.296 250.728,52.728 255.912,52.792 C258.472,52.792 261.096,52.92 263.656,52.408 C269.608,51.192 276.712,46.136 276.712,39.48 L276.712,39.48 Z" id="Themes" fill="#000000" sketch:type="MSShapeGroup"></path>
    </g>
</svg>