<?xml version="1.0" encoding="UTF-8" standalone="no"?>
<svg width="567px" height="137px" viewBox="0 0 567 137" version="1.1" xmlns="http://www.w3.org/2000/svg" xmlns:xlink="http://www.w3.org/1999/xlink" xmlns:sketch="http://www.bohemiancoding.com/sketch/ns">
    <!-- Generator: Sketch 3.5.2 (25235) - http://www.bohemiancoding.com/sketch -->
    <title>Put your comic on th</title>
    <desc>Created with Sketch.</desc>
    <defs></defs>
    <g id="Page-1" stroke="none" stroke-width="1" fill="none" fill-rule="evenodd" sketch:type="MSPage">
        <g id="Artboard-1-Copy" sketch:type="MSArtboardGroup" transform="translate(-46.000000, -44.000000)" fill="#131313">
            <path d="M76.292,65.216 C76.292,72.632 70.532,72.128 64.7,72.128 C63.26,72.128 61.82,72.056 60.308,71.984 C60.524,67.448 60.812,62.84 60.956,58.304 C61.82,58.232 62.756,58.16 63.692,58.16 C68.66,58.16 76.292,58.52 76.292,65.216 L76.292,65.216 Z M88.748,61.256 C88.748,56.072 85.796,52.256 81.62,49.52 C77.516,46.784 70.028,46.208 65.204,46.208 C61.964,46.208 58.652,46.424 55.412,47.072 C48.86,47.648 44.468,55.28 48.5,59.168 C48.5,64.856 48.788,71.264 48.788,76.952 C48.788,82.568 48.068,88.184 48.068,93.8 C48.068,97.544 48.788,103.016 53.684,103.016 C57.068,103.016 59.876,97.616 60.308,94.664 C60.524,93.224 60.596,91.784 60.596,90.272 C60.596,88.112 60.452,85.952 60.308,83.792 L61.964,83.792 C64.844,83.792 67.94,83.576 70.748,82.928 C73.916,82.136 80.828,77.888 83.132,75.44 C86.228,72.128 88.748,65.864 88.748,61.256 L88.748,61.256 Z M132.684,64.424 C132.684,61.688 131.244,59.96 128.436,59.96 C125.556,59.96 121.164,63.92 120.876,66.8 C120.516,70.112 120.588,73.496 120.588,76.808 C120.588,80.624 120.66,84.44 120.732,88.256 C117.78,90.416 114.324,91.064 110.076,91.064 C104.964,91.064 104.316,84.152 104.316,80.264 C104.316,75.44 104.892,70.688 105.468,65.936 C105.54,65.216 105.684,64.496 105.684,63.776 C105.684,60.896 103.38,60.248 101.004,60.248 C98.052,60.248 94.524,64.424 93.876,67.088 C93.444,68.888 93.444,70.832 93.444,72.704 C93.444,79.688 93.012,90.272 95.892,96.608 C98.34,101.936 103.38,102.44 108.564,102.44 C112.524,102.44 117.132,101.216 120.948,99.056 C121.38,101.072 122.388,102.728 124.836,102.728 C127.284,102.728 130.524,100.424 131.532,98.192 C132.252,96.464 132.468,94.592 132.468,92.72 C132.468,90.2 132.036,87.68 132.036,85.088 C132.036,81.632 131.748,78.176 131.748,74.648 C131.748,72.776 131.82,70.904 132.108,68.96 C132.324,67.448 132.684,65.936 132.684,64.424 L132.684,64.424 Z M167.044,94.232 C167.044,92.504 166.324,90.488 164.308,90.488 C161.932,90.488 159.988,92.36 157.612,92.36 C152.788,92.36 152.788,85.232 152.788,81.848 C152.788,79.688 152.86,77.528 152.86,75.296 C152.86,73.496 153.004,71.624 153.148,69.824 C153.724,69.752 154.3,69.752 154.948,69.752 C158.26,69.752 166.612,67.592 166.612,63.344 C166.612,60.176 164.308,59.096 161.5,59.096 C159.556,59.096 157.612,59.528 155.668,59.528 L153.796,59.528 L153.796,58.016 C153.796,56.504 154.084,55.064 154.084,53.552 C154.084,51.248 153.292,48.512 150.412,48.512 C149.908,48.512 149.332,48.656 148.828,48.728 C145.3,49.664 142.852,54.704 142.852,58.16 L142.852,60.032 C140.332,60.968 137.812,64.208 137.812,66.512 C137.812,69.176 139.54,69.968 141.916,69.968 L142.852,69.968 C142.78,75.728 142.708,81.56 142.708,87.32 C142.708,94.304 145.372,103.088 153.796,103.088 C158.98,103.088 167.044,100.568 167.044,94.232 L167.044,94.232 Z M234.036,64.208 C234.036,61.976 231.948,59.96 229.716,59.96 C228.924,59.96 228.276,60.248 227.7,60.68 C226.692,61.4 225.9,62.768 225.324,63.92 C224.892,64.856 224.532,65.864 224.1,66.872 C221.508,72.848 218.556,78.608 215.604,84.44 C212.148,78.752 209.556,72.344 206.964,66.296 C205.884,63.704 203.652,60.32 200.484,60.32 C197.316,60.32 194.436,64.136 194.436,67.16 C194.436,69.104 195.3,70.976 196.308,72.632 C197.1,73.856 198.036,75.152 198.612,76.52 C200.484,80.984 202.716,85.304 204.804,89.768 C205.812,91.856 206.748,94.016 208.188,95.888 C208.476,96.32 208.836,96.752 209.268,97.112 C208.476,98.552 207.756,99.992 207.036,101.432 C205.596,104.528 204.444,107.912 204.444,111.368 C204.444,113.456 205.524,116.84 208.116,116.84 C210.276,116.84 211.86,115.976 212.724,113.96 C213.3,112.664 213.444,111.152 213.876,109.784 C216.108,103.088 219.132,96.464 222.444,90.2 C223.668,87.896 224.676,85.52 225.9,83.144 C228.924,77.312 234.036,70.976 234.036,64.208 L234.036,64.208 Z M269.836,81.488 C269.836,87.536 269.404,92.864 261.484,92.864 C253.924,92.864 249.172,88.688 249.172,81.128 C249.172,73.28 250.612,69.896 259.828,69.896 C266.74,69.896 269.836,75.152 269.836,81.488 L269.836,81.488 Z M280.996,78.032 C280.996,66.44 272.068,59.456 260.908,59.456 C257.74,59.456 254.5,60.032 251.692,61.472 C243.556,65.792 238.228,75.368 238.228,84.44 C238.228,96.248 247.516,103.304 258.748,103.304 C273.004,103.304 280.996,91.352 280.996,78.032 L280.996,78.032 Z M326.156,64.424 C326.156,61.688 324.716,59.96 321.908,59.96 C319.028,59.96 314.636,63.92 314.348,66.8 C313.988,70.112 314.06,73.496 314.06,76.808 C314.06,80.624 314.132,84.44 314.204,88.256 C311.252,90.416 307.796,91.064 303.548,91.064 C298.436,91.064 297.788,84.152 297.788,80.264 C297.788,75.44 298.364,70.688 298.94,65.936 C299.012,65.216 299.156,64.496 299.156,63.776 C299.156,60.896 296.852,60.248 294.476,60.248 C291.524,60.248 287.996,64.424 287.348,67.088 C286.916,68.888 286.916,70.832 286.916,72.704 C286.916,79.688 286.484,90.272 289.364,96.608 C291.812,101.936 296.852,102.44 302.036,102.44 C305.996,102.44 310.604,101.216 314.42,99.056 C314.852,101.072 315.86,102.728 318.308,102.728 C320.756,102.728 323.996,100.424 325.004,98.192 C325.724,96.464 325.94,94.592 325.94,92.72 C325.94,90.2 325.508,87.68 325.508,85.088 C325.508,81.632 325.22,78.176 325.22,74.648 C325.22,72.776 325.292,70.904 325.58,68.96 C325.796,67.448 326.156,65.936 326.156,64.424 L326.156,64.424 Z M364.764,66.584 C364.764,62.048 361.884,59.312 357.348,59.312 C352.524,59.312 349.14,60.896 346.188,63.272 C346.116,61.04 345.108,59.24 342.516,59.24 C335.388,59.24 335.244,67.592 335.244,72.776 C335.244,78.176 335.172,83.576 335.172,88.904 C335.172,91.64 334.956,94.376 334.956,97.184 C334.956,100.208 336.612,102.08 339.708,102.08 C345.18,102.08 345.9,96.464 345.9,92.288 L345.9,74.504 C348.42,72.56 351.372,70.904 354.252,70.904 C356.628,70.904 358.5,72.56 360.732,72.56 C363.756,72.56 364.764,69.032 364.764,66.584 L364.764,66.584 Z M430.028,67.808 C430.028,60.392 422.396,59.168 416.492,59.168 C404.828,59.168 393.668,70.256 393.668,81.92 C393.668,92.864 400.436,102.8 412.172,102.8 C417.068,102.8 429.812,100.064 429.812,93.44 C429.812,91.568 428.804,90.128 426.86,90.128 C426.356,90.128 425.924,90.272 425.492,90.344 C422.18,91.208 419.012,91.928 415.556,91.928 C409.58,91.928 404.756,85.664 404.756,79.976 C404.756,73.496 407.924,70.328 414.404,70.328 C419.732,70.328 422.972,73.64 425.996,73.64 C429.092,73.64 430.028,70.328 430.028,67.808 L430.028,67.808 Z M463.884,81.488 C463.884,87.536 463.452,92.864 455.532,92.864 C447.972,92.864 443.22,88.688 443.22,81.128 C443.22,73.28 444.66,69.896 453.876,69.896 C460.788,69.896 463.884,75.152 463.884,81.488 L463.884,81.488 Z M475.044,78.032 C475.044,66.44 466.116,59.456 454.956,59.456 C451.788,59.456 448.548,60.032 445.74,61.472 C437.604,65.792 432.276,75.368 432.276,84.44 C432.276,96.248 441.564,103.304 452.796,103.304 C467.052,103.304 475.044,91.352 475.044,78.032 L475.044,78.032 Z M546.988,92.504 C546.988,88.112 546.196,83.72 546.196,79.256 C546.196,75.296 546.7,71.192 545.62,67.232 C544.252,62.408 539.86,58.952 534.82,59.096 L534.244,59.096 C528.628,59.24 523.588,61.04 518.836,63.992 C518.548,64.136 518.26,64.352 517.972,64.568 C515.74,61.328 512.284,59.168 507.244,59.168 C502.852,59.168 497.38,60.824 492.988,63.56 C492.484,61.328 491.044,59.744 488.092,59.744 C482.98,59.744 481.54,70.76 481.54,74.576 C481.54,78.896 481.18,95.528 481.9,98.552 C482.476,101 484.204,102.44 486.724,102.44 C491.548,102.44 493.348,95.312 493.204,91.568 L493.132,90.632 C492.916,85.304 492.7,79.904 492.7,74.504 C495.652,72.488 498.892,70.904 502.204,70.904 C509.548,70.904 508.9,77.096 508.9,82.496 C508.9,87.32 508.612,92.144 508.612,96.896 C508.612,100.568 509.548,102.656 513.58,102.656 C518.62,102.656 520.348,92.36 520.348,88.616 C520.348,84.44 520.996,80.336 520.996,76.16 C520.996,75.296 520.996,74.432 520.924,73.64 C523.3,72.128 525.892,71.048 529.204,71.048 C534.1,71.048 535.18,73.712 535.18,78.104 C535.18,81.488 535.324,84.872 535.324,88.256 C535.324,91.424 534.82,94.592 534.82,97.688 C534.82,101 536.692,102.44 539.932,102.44 C545.044,102.44 546.988,96.824 546.988,92.504 L546.988,92.504 Z M569.18,95.744 C569.18,93.584 567.956,91.136 567.956,87.896 C567.956,80.48 568.244,75.152 568.244,67.736 C568.244,65.072 567.38,62.624 563.924,62.624 C558.668,62.624 557.732,72.2 557.732,75.656 C557.732,83.36 557.876,88.976 557.876,96.68 C557.876,99.272 558.812,102.368 562.268,102.368 C565.652,102.368 569.18,98.696 569.18,95.744 L569.18,95.744 Z M569.756,49.664 C569.756,46.424 567.956,44.336 564.284,44.336 C560.684,44.336 556.724,48.728 556.724,51.824 C556.724,54.416 559.028,57.008 561.98,57.008 C565.364,57.008 569.756,52.688 569.756,49.664 L569.756,49.664 Z M612.252,67.808 C612.252,60.392 604.62,59.168 598.716,59.168 C587.052,59.168 575.892,70.256 575.892,81.92 C575.892,92.864 582.66,102.8 594.396,102.8 C599.292,102.8 612.036,100.064 612.036,93.44 C612.036,91.568 611.028,90.128 609.084,90.128 C608.58,90.128 608.148,90.272 607.716,90.344 C604.404,91.208 601.236,91.928 597.78,91.928 C591.804,91.928 586.98,85.664 586.98,79.976 C586.98,73.496 590.148,70.328 596.628,70.328 C601.956,70.328 605.196,73.64 608.22,73.64 C611.316,73.64 612.252,70.328 612.252,67.808 L612.252,67.808 Z M133.924,158.488 C133.924,164.536 133.492,169.864 125.572,169.864 C118.012,169.864 113.26,165.688 113.26,158.128 C113.26,150.28 114.7,146.896 123.916,146.896 C130.828,146.896 133.924,152.152 133.924,158.488 L133.924,158.488 Z M145.084,155.032 C145.084,143.44 136.156,136.456 124.996,136.456 C121.828,136.456 118.588,137.032 115.78,138.472 C107.644,142.792 102.316,152.368 102.316,161.44 C102.316,173.248 111.604,180.304 122.836,180.304 C137.092,180.304 145.084,168.352 145.084,155.032 L145.084,155.032 Z M190.244,170.656 C190.028,164.68 189.524,158.704 189.38,152.728 C189.308,149.632 189.164,145.456 188.156,142.504 C186.212,137.176 179.804,135.952 174.764,135.952 C171.524,135.952 166.772,137.896 163.172,140.344 C162.812,137.824 161.228,136.6 158.42,136.6 C152.3,136.6 151.364,142.72 151.364,147.472 C151.364,152.872 151.724,158.2 151.724,163.528 C151.724,166.264 151.508,168.928 151.148,171.592 C151.076,172.096 151.076,172.528 151.076,172.96 C151.076,176.056 152.444,179.08 155.972,179.08 C162.02,179.08 162.596,171.808 162.596,167.272 C162.596,162.016 162.812,156.688 163.028,151.432 C165.692,149.128 168.644,147.4 171.452,147.4 C178.436,147.4 179.228,153.808 179.228,159.352 C179.228,163.6 178.724,167.848 178.724,172.096 C178.724,174.904 179.156,180.016 182.972,180.016 C187.94,180.016 190.46,175.696 190.316,171.232 L190.244,170.656 Z M250.468,171.232 C250.468,169.504 249.748,167.488 247.732,167.488 C245.356,167.488 243.412,169.36 241.036,169.36 C236.212,169.36 236.212,162.232 236.212,158.848 C236.212,156.688 236.284,154.528 236.284,152.296 C236.284,150.496 236.428,148.624 236.572,146.824 C237.148,146.752 237.724,146.752 238.372,146.752 C241.684,146.752 250.036,144.592 250.036,140.344 C250.036,137.176 247.732,136.096 244.924,136.096 C242.98,136.096 241.036,136.528 239.092,136.528 L237.22,136.528 L237.22,135.016 C237.22,133.504 237.508,132.064 237.508,130.552 C237.508,128.248 236.716,125.512 233.836,125.512 C233.332,125.512 232.756,125.656 232.252,125.728 C228.724,126.664 226.276,131.704 226.276,135.16 L226.276,137.032 C223.756,137.968 221.236,141.208 221.236,143.512 C221.236,146.176 222.964,146.968 225.34,146.968 L226.276,146.968 C226.204,152.728 226.132,158.56 226.132,164.32 C226.132,171.304 228.796,180.088 237.22,180.088 C242.404,180.088 250.468,177.568 250.468,171.232 L250.468,171.232 Z M294.26,172.096 C294.26,166.696 293.756,161.296 293.756,155.896 C293.756,148.048 294.188,140.056 285.476,136.744 C283.388,135.952 281.156,135.592 278.924,135.592 C274.532,135.592 270.284,137.176 266.684,139.696 C266.9,135.232 267.044,130.696 267.044,126.232 C267.044,123.928 266.612,121.624 263.804,121.624 C258.764,121.624 255.164,127.744 255.164,132.28 C255.164,136.456 255.452,140.632 255.452,144.808 C255.452,151.576 255.452,158.416 255.02,165.184 C254.876,167.272 254.588,169.432 254.588,171.52 C254.588,174.4 255.092,179.44 258.98,179.44 C264.02,179.44 266.828,174.256 266.828,169.72 C266.828,166.264 266.036,162.736 266.036,159.136 C266.036,156.544 266.108,153.88 266.18,151.216 C268.556,149.272 271.652,147.544 274.172,147.544 C281.876,147.544 282.668,149.488 282.668,156.688 C282.668,162.448 282.236,168.136 282.236,173.896 C282.236,177.496 283.172,180.16 287.348,180.16 C291.02,180.16 294.26,175.552 294.26,172.096 L294.26,172.096 Z M331.932,151.504 C325.596,151.864 319.332,152.008 313.068,152.008 C315.228,147.4 318.828,145.6 322.932,145.6 C326.172,145.6 330.996,146.68 331.932,151.504 L331.932,151.504 Z M341.508,154.024 C341.508,145.96 338.052,137.68 329.268,136.024 C327.036,135.592 324.732,135.592 322.428,135.592 C316.884,135.592 309.252,139.48 306.084,144.016 C302.7,148.696 299.892,155.176 299.892,160.936 C299.892,171.808 311.124,180.088 321.348,180.088 C327.972,180.088 338.412,178.432 340.86,171.232 C341.004,170.8 341.076,170.296 341.076,169.792 C341.076,168.28 340.356,165.76 338.484,165.76 C334.452,165.76 331.428,168.496 327.396,168.856 C326.1,169 324.804,169.072 323.508,169.072 C321.708,169.072 318.756,168.928 317.172,168.208 C314.652,166.984 311.916,164.536 311.196,161.728 C317.46,161.8 323.652,161.872 329.916,161.872 C335.028,161.872 341.508,160.432 341.508,154.024 L341.508,154.024 Z M428.228,142.432 C428.228,139.192 427.004,135.16 423.116,135.16 C419.444,135.16 418.58,137.968 418.364,140.992 C417.788,148.48 416.132,153.664 413.972,160.72 C412.46,156.472 406.412,137.752 402.956,136.168 C402.164,135.808 401.372,135.592 400.508,135.592 C398.348,135.592 395.972,137.032 395.252,139.12 C393.884,143.08 392.804,147.112 391.364,151.072 C390.068,154.6 388.916,158.128 387.476,161.584 C385.748,155.752 384.308,149.776 383.444,143.8 C383.228,142 383.012,139.768 382.22,138.184 C381.572,136.744 380.42,135.736 378.764,135.736 C374.372,135.736 371.42,141.856 371.42,145.6 C371.42,147.04 371.996,148.912 372.428,150.28 C373.004,151.864 373.58,153.448 374.156,154.96 C375.812,159.496 377.036,164.104 378.476,168.64 C379.124,170.872 379.412,173.176 380.204,175.336 C381.14,178.072 382.94,180.376 386.108,180.376 C389.636,180.376 391.364,175.984 392.084,173.104 C393.668,166.768 396.908,160.72 399.428,154.744 C401.804,160.072 404.468,165.4 406.268,171.016 C406.772,172.6 407.276,174.112 408.068,175.624 C408.932,177.424 410.444,179.44 412.676,179.44 C418.436,179.44 420.02,173.464 420.884,168.928 C422.468,160.648 428.228,150.928 428.228,142.432 L428.228,142.432 Z M465.828,151.504 C459.492,151.864 453.228,152.008 446.964,152.008 C449.124,147.4 452.724,145.6 456.828,145.6 C460.068,145.6 464.892,146.68 465.828,151.504 L465.828,151.504 Z M475.404,154.024 C475.404,145.96 471.948,137.68 463.164,136.024 C460.932,135.592 458.628,135.592 456.324,135.592 C450.78,135.592 443.148,139.48 439.98,144.016 C436.596,148.696 433.788,155.176 433.788,160.936 C433.788,171.808 445.02,180.088 455.244,180.088 C461.868,180.088 472.308,178.432 474.756,171.232 C474.9,170.8 474.972,170.296 474.972,169.792 C474.972,168.28 474.252,165.76 472.38,165.76 C468.348,165.76 465.324,168.496 461.292,168.856 C459.996,169 458.7,169.072 457.404,169.072 C455.604,169.072 452.652,168.928 451.068,168.208 C448.548,166.984 445.812,164.536 445.092,161.728 C451.356,161.8 457.548,161.872 463.812,161.872 C468.924,161.872 475.404,160.432 475.404,154.024 L475.404,154.024 Z M511.348,159.856 C511.348,166.192 509.044,168.928 502.42,168.928 C498.532,168.928 496.3,167.704 493.42,166.048 C493.492,164.104 493.564,162.16 493.636,160.216 C493.78,157.624 493.78,155.032 493.78,152.368 L493.78,150.856 C496.372,149.416 499.18,148.408 502.204,148.408 C509.908,148.408 511.348,153.304 511.348,159.856 L511.348,159.856 Z M522.868,154.888 C522.868,148.624 519.628,141.712 514.012,138.544 C511.996,137.464 507.676,136.744 505.372,136.744 C501.34,136.744 497.236,137.968 493.636,139.912 C493.636,136.528 493.564,133.144 493.564,129.76 C493.564,126.736 493.06,122.56 489.172,122.56 C483.844,122.56 481.756,129.544 481.828,133.864 L481.828,134.368 C482.044,146.104 482.188,157.84 482.188,169.504 C482.188,173.32 481.396,179.728 487.084,179.728 C488.812,179.728 490.18,178.792 491.26,177.424 C494.5,178.936 498.604,179.8 500.62,179.8 C508.18,179.8 513.364,176.272 517.756,170.368 C520.636,166.408 522.868,159.856 522.868,154.888 L522.868,154.888 Z M546.068,173.32 C546.068,169.936 543.62,167.992 540.092,167.992 C539.66,167.992 539.228,167.992 538.868,168.064 C535.916,168.496 532.316,172.456 532.316,175.12 C532.316,177.928 535.052,180.376 538.076,180.376 C541.388,180.376 546.068,176.56 546.068,173.32 L546.068,173.32 Z M547.22,128.392 C547.22,125.44 544.988,124.432 542.324,124.432 C537.932,124.432 533.54,128.536 533.54,133 L533.54,141.28 C533.54,144.952 533.324,148.624 533.324,152.296 C533.324,155.392 533.468,162.088 537.932,162.088 C543.62,162.088 544.7,156.76 544.916,152.368 C545.204,145.456 545.564,138.328 546.788,131.56 C547.004,130.48 547.22,129.472 547.22,128.392 L547.22,128.392 Z" id="Put-your-comic-on-th" sketch:type="MSShapeGroup"></path>
        </g>
    </g>
</svg>